<?xml version="1.0" encoding="utf-8"?>
<!-- Generator: Adobe Illustrator 24.0.0, SVG Export Plug-In . SVG Version: 6.00 Build 0)  -->
<svg version="1.1" id="Layer_1" xmlns="http://www.w3.org/2000/svg" xmlns:xlink="http://www.w3.org/1999/xlink" x="0px" y="0px"
	 viewBox="0 0 258.6 232" style="enable-background:new 0 0 258.6 232;" xml:space="preserve">
<style type="text/css">
	.st0{fill:#E6E6E5;}
	.st1{fill:#FFFFFF;}
	.st2{fill:#010101;}
	.st3{fill:#31A8E0;}
</style>
<g>
	<g>
		<path class="st0" d="M35.6,106.1c-8,0-14.6-6.5-14.6-14.6c0-8,6.5-14.6,14.6-14.6h90.9l31.7-58.4c2.5-4.7,7.4-7.6,12.8-7.6
			c2.4,0,4.8,0.6,6.9,1.8c7.1,3.8,9.7,12.7,5.9,19.7L159.7,77h75.1c8,0,14.6,6.5,14.6,14.6c0,8-6.5,14.6-14.6,14.6H35.6z"/>
	</g>
	<g>
		<path class="st0" d="M66.8,230.7c-6.5,0-12.1-4.2-13.9-10.4L21.7,117.6c-1.3-4.4-0.5-9.2,2.2-12.9c2.7-3.7,7.1-5.9,11.7-5.9H231
			c4.5,0,8.9,2.2,11.6,5.8c2.7,3.6,3.6,8.4,2.4,12.7l-29,102.7c-1.8,6.2-7.5,10.6-14,10.6l-28,0L66.8,230.7z"/>
	</g>
	<g>
		<path class="st1" d="M24.6,96.1c-8,0-14.6-6.5-14.6-14.6c0-8,6.5-14.6,14.6-14.6h90.9l31.7-58.4c2.5-4.7,7.4-7.6,12.8-7.6
			c2.4,0,4.8,0.6,6.9,1.8c7.1,3.8,9.7,12.7,5.9,19.7L148.7,67h75.1c8,0,14.6,6.5,14.6,14.6c0,8-6.5,14.6-14.6,14.6H24.6z"/>
	</g>
	<g>
		<path class="st1" d="M55.8,220.7c-6.5,0-12.1-4.2-13.9-10.4L10.7,107.6c-1.3-4.4-0.5-9.2,2.2-12.9c2.7-3.7,7.1-5.9,11.7-5.9H220
			c4.5,0,8.9,2.2,11.6,5.8c2.7,3.6,3.6,8.4,2.4,12.7l-29,102.7c-1.8,6.2-7.5,10.6-14,10.6l-28,0L55.8,220.7z"/>
	</g>
	<g>
		<path class="st2" d="M223.8,86.1H24.6c-2.5,0-4.6-2-4.6-4.6c0-2.5,2-4.6,4.6-4.6h199.2c2.5,0,4.6,2,4.6,4.6
			C228.4,84.1,226.4,86.1,223.8,86.1z"/>
	</g>
	<g>
		<path class="st2" d="M124.2,86.1c-0.7,0-1.5-0.2-2.2-0.6c-2.2-1.2-3-4-1.8-6.2l35.8-66c1.2-2.2,4-3,6.2-1.8c2.2,1.2,3,4,1.8,6.2
			l-35.8,66C127.4,85.3,125.9,86.1,124.2,86.1z"/>
	</g>
	<g>
		<path class="st2" d="M191,210.7H55.8c-2,0-3.8-1.3-4.4-3.2L20.3,104.7c-0.4-1.4-0.2-2.9,0.7-4c0.9-1.2,2.2-1.8,3.7-1.8H220
			c1.4,0,2.8,0.7,3.6,1.8c0.9,1.1,1.1,2.6,0.8,4l-29,102.8C194.9,209.4,193.1,210.7,191,210.7z M59.1,201.6h128.4L214,108H30.8
			L59.1,201.6z"/>
	</g>
	<g>
		<path class="st3" d="M59.1,201.6h128.4L214,108H30.8L59.1,201.6z"/>
	</g>
	<g>
		<path class="st2" d="M163,210.7c-0.2,0-0.5,0-0.7-0.1c-2.5-0.4-4.2-2.7-3.8-5.2l16-102.8c0.4-2.5,2.7-4.2,5.2-3.8
			c2.5,0.4,4.2,2.7,3.8,5.2l-16,102.8C167.2,209.1,165.3,210.7,163,210.7z"/>
	</g>
	<g>
		<path class="st2" d="M137.7,210.7c-0.1,0-0.1,0-0.2,0c-2.5-0.1-4.5-2.2-4.4-4.8l4.4-102.8c0.1-2.5,2.2-4.5,4.8-4.4
			c2.5,0.1,4.5,2.2,4.4,4.8l-4.4,102.8C142.2,208.8,140.2,210.7,137.7,210.7z"/>
	</g>
	<g>
		<path class="st2" d="M82.3,210.7c-2.2,0-4.2-1.6-4.5-3.9l-16-102.8c-0.4-2.5,1.3-4.8,3.8-5.2c2.5-0.4,4.8,1.3,5.2,3.8l16,102.8
			c0.4,2.5-1.3,4.8-3.8,5.2C82.7,210.7,82.5,210.7,82.3,210.7z"/>
	</g>
	<g>
		<path class="st2" d="M107.6,210.7c-2.4,0-4.4-1.9-4.6-4.4l-4.4-102.8c-0.1-2.5,1.8-4.6,4.4-4.8c2.5-0.1,4.6,1.8,4.8,4.4l4.4,102.8
			c0.1,2.5-1.8,4.6-4.4,4.8C107.7,210.7,107.6,210.7,107.6,210.7z"/>
	</g>
	<g>
		<path class="st2" d="M205.5,159.3H40.2c-2.5,0-4.6-2-4.6-4.6c0-2.5,2-4.6,4.6-4.6h165.3c2.5,0,4.6,2,4.6,4.6
			C210.1,157.3,208,159.3,205.5,159.3z"/>
	</g>
</g>
</svg>
