<?xml version="1.0" encoding="utf-8"?>
<!-- Generator: Adobe Illustrator 23.0.3, SVG Export Plug-In . SVG Version: 6.00 Build 0)  -->
<svg version="1.1" id="Capa_1" xmlns="http://www.w3.org/2000/svg" xmlns:xlink="http://www.w3.org/1999/xlink" x="0px" y="0px"
	 viewBox="0 0 512 512" style="enable-background:new 0 0 512 512;" xml:space="preserve">
<style type="text/css">
	.st0{fill:#2B98ED;}
</style>
<g>
	<path class="st0" d="M481.6,496.1l-29.3-362.3c-0.6-7.1-6.5-12.7-13.7-12.7H360v-17.4C360,46.5,314.1,0,256.9,0h-1.8
		c-57.2,0-104.3,46.5-104.3,103.7v17.4H73.4c-7.2,0-13.1,5.5-13.7,12.7L30.3,497.1c-0.3,3.8,1,7.6,3.6,10.4
		c2.6,2.8,6.3,4.4,10.1,4.4h423.9c0,0,0,0,0,0c7.6,0,13.8-6.2,13.8-13.8C481.7,497.5,481.7,496.8,481.6,496.1z M178.3,103.7
		c0-42,34.8-76.2,76.8-76.2h1.8c42,0,75.6,34.2,75.6,76.2v17.4H178.3V103.7z"/>
</g>
</svg>
