<?xml version="1.0" encoding="utf-8"?>
<!-- Generator: Adobe Illustrator 23.0.3, SVG Export Plug-In . SVG Version: 6.00 Build 0)  -->
<svg version="1.1" id="Layer_1" xmlns="http://www.w3.org/2000/svg" xmlns:xlink="http://www.w3.org/1999/xlink" x="0px" y="0px"
	 viewBox="0 0 512 512" style="enable-background:new 0 0 512 512;" xml:space="preserve">
<style type="text/css">
	.st0{fill:#A49CA7;}
	.st1{fill:#C2BDC5;}
	.st2{fill:#B3ADB6;}
</style>
<g>
	<path class="st0" d="M344,285.9l-7.6,13.7c-1.4,2.6-5.3,1.9-5.9-1.1c-3.2-19.2-16.3-33.2-20.5-37.3c-0.8-0.8-1.1-2-0.8-3.2
		c4.5-14.9,26.6-31.5,26.6-31.5l13.9-10.8l2.8,55.3L344,285.9z"/>
	<path class="st0" d="M394.9,226.5l12.2,6.5c1.2,0.7,2.8,0.3,3.5-0.8l17.8-25.1c0.8-1.1,0.7-2.4-0.1-3.4
		c-17.8-22.1-34.7-21.7-34.7-21.7l-7.7,0.4v41.5L394.9,226.5z"/>
	<path class="st0" d="M331.3,186.2l9-7.2v-23.9l-9.4,7.3c0,0-19.3,15.6-21.1,37.7c-0.2,1.8,2,2.9,3.3,1.7L331.3,186.2z"/>
	<path class="st0" d="M340.4,384.5c8.8-3.6,24.3-12,25.3-26.9c0-0.3,0.3-0.6,0.6-0.6c0.3,0,0.6,0.2,0.7,0.6
		c1.6,14.9,17.4,22.7,26.3,26c2.6,0.9,5-1.4,4.3-4.1L378,312.6h-24.4l-17.6,68.1C335.3,383.3,337.9,385.6,340.4,384.5z"/>
</g>
<path class="st1" d="M362.7,340.4c-11.6-23-58.8-200-7.3-268.5c3.2-4.3,8.6-4.3,11.9-0.1c5,6.3,12.2,24.8,17.8,50.7
	c1.1,5.1,2.2,10.5,3.2,16.1c9.3,54.4,10.6,132.4-21,201.7C366.4,342.3,363.7,342.4,362.7,340.4L362.7,340.4z"/>
<path class="st2" d="M362.7,340.4c-11.6-23-58.8-200-7.3-268.5c3.2-4.3,8.6-4.3,11.9-0.1c2.5,3.2,5.6,9.4,8.6,18
	c-38.8,55.1-18.1,175-2,234.3c-2,5.4-4.3,10.8-6.8,16.2C366.4,342.3,363.7,342.4,362.7,340.4L362.7,340.4z"/>
<path class="st0" d="M230.4,226.1l-7.6-13.7c-1.4-2.6-5.3-1.9-5.9,1.1c-3.2,19.2-16.3,33.2-20.5,37.3c-0.8,0.8-1.1,2-0.8,3.2
	c4.5,14.9,26.6,31.5,26.6,31.5l13.9,10.8l2.8-55.3L230.4,226.1z"/>
<path class="st0" d="M281.2,285.5l12.2-6.5c1.2-0.7,2.8-0.3,3.5,0.8l17.8,25.1c0.8,1.1,0.7,2.4-0.1,3.4C296.9,330.4,280,330,280,330
	l-7.7-0.4v-41.5L281.2,285.5z"/>
<path class="st0" d="M217.6,325.8l9,7.2v23.9l-9.4-7.3c0,0-19.3-15.6-21.1-37.7c-0.2-1.8,2-2.9,3.3-1.7L217.6,325.8z"/>
<path class="st0" d="M226.8,127.5c8.8,3.6,24.3,12,25.3,26.9c0,0.3,0.3,0.6,0.6,0.6s0.6-0.2,0.7-0.6c1.6-14.9,17.4-22.7,26.3-26
	c2.6-0.9,5,1.4,4.3,4.1l-19.6,66.9h-24.5l-17.6-68.1C221.7,128.7,224.3,126.4,226.8,127.5L226.8,127.5z"/>
<path class="st1" d="M249,171.6c-11.6,23-58.8,200-7.3,268.5c3.2,4.3,8.6,4.3,11.9,0.1c5-6.3,12.2-24.8,17.8-50.7
	c1.1-5.1,2.2-10.5,3.2-16.1c9.3-54.4,10.6-132.4-21-201.7C252.8,169.7,250,169.6,249,171.6L249,171.6z"/>
<path class="st2" d="M249,171.6c-11.6,23-58.8,200-7.3,268.5c3.2,4.3,8.6,4.3,11.9,0.1c2.5-3.2,5.6-9.4,8.6-18
	c-38.8-55.1-18.1-175-2-234.3c-2-5.4-4.3-10.8-6.8-16.2C252.8,169.7,250,169.6,249,171.6z"/>
<path d="M351.6,69c-15.1,20.1-23.3,50.4-24.5,90.3c-12.8,11-23,28.3-22.4,45.8c0.2,4,4.9,6.1,7.9,3.5l15.2-13.1
	c0.6,9.4,1.5,19.1,2.8,29.1c-6.6,5.3-23.9,20.4-26.6,34.6c-0.3,1.7,0.2,3.4,1.6,4.5c0.2,0.2,21.6,19.2,20.9,45
	c-0.1,5,6.5,6.8,8.9,2.5l8.5-15.2c1.6,6.3,3.1,12.2,4.6,17.6l-17.2,66c-1.6,6.4,4.8,11.9,10.9,9.4c7.4-3,18.5-8.9,24.4-18.8
	c6.2,9.6,17.6,15.1,25.1,17.8c6.2,2.3,12.4-3.5,10.5-9.8L383,312.6c8-24.6,13-51.1,14.9-79.2l7,3.7c3.4,1.8,7.5,0.8,9.7-2.3
	l17.8-25.1c2-2.7,1.8-6.5-0.3-9.1c-13.8-17.2-27.5-21.8-34.3-23c-3.8-53.1-17.3-97.1-26.6-108.8C365.9,62.2,356.7,62.3,351.6,69
	L351.6,69z M327.1,173.1c0.1,3.4,0.2,6.8,0.2,10.3l-11.5,9.9C318.2,184.9,323,177.8,327.1,173.1z M392.2,378
	c-8.2-3.4-19.3-10-20.5-20.9c-0.7-6.5-10.4-6.4-10.8,0.2c-0.8,11-11.6,17.9-19.7,21.6l12.5-48c1.8,5.2,3.4,9.2,4.7,11.7
	c2.8,5.5,10.7,5.3,13.2-0.3c2.1-4.7,4.1-9.4,6-14.2L392.2,378z M423.7,205.5L407.8,228l-9.3-5c0.5-11.5,0.5-23.1-0.2-35.5
	C403.8,189,413.4,193.2,423.7,205.5z M365.1,333.7c-4.3-11-11.4-35-17.6-65.9c-0.5-2.6-3-4.3-5.6-3.8c-2.6,0.5-4.3,3-3.8,5.6
	c0.9,4.4,1.7,8.6,2.6,12.7c-0.8,0.7-0.4,0.2-6.4,11c-4.3-17.4-15.4-30-20.2-34.9c2.8-7.7,11.3-16.7,18.1-22.7c0.7,5,1.5,10,2.3,15
	c0.5,2.6,2.9,4.4,5.5,3.9c2.6-0.5,4.4-2.9,3.9-5.5c-4.9-29-8-60.1-7.3-89.1c21.7,3.3,37.5-5.4,46.7-21.8
	C394.5,202.1,391,273.6,365.1,333.7L365.1,333.7z M363.7,74.8c4.5,5.7,11,22.5,16.3,46.1c-0.8,3.5-4.4,17.3-15.5,24.9
	c-7.2,5-16.4,6.5-27.2,4.7c2-33.3,9.4-58.8,22.1-75.8C360.7,72.9,362.3,73.1,363.7,74.8z"/>
<ellipse cx="363" cy="112" rx="7.1" ry="7.1"/>
<path d="M257.5,443.1c5.8-7.3,12.6-25.9,17.9-48.7c3.3-14.3,7.1-35,8.9-60.1c6.8-1.2,20.4-5.9,34.3-23c2.1-2.6,2.3-6.4,0.3-9.1
	L301,277.1c-2.2-3.1-6.4-4.1-9.7-2.3l-7,3.7c-1.9-28.1-6.9-54.6-14.9-79.2l19.1-65.4c1.8-6.3-4.4-12.1-10.5-9.8
	c-7.5,2.7-18.8,8.2-25.1,17.8c-5.9-9.8-17-15.8-24.4-18.8c-5.4-2.2-11.1,1.8-11.1,7.4c0,1.7-1.3-3.8,17.5,68.1
	c-1.5,5.3-3.1,11.2-4.7,17.6l-8.5-15.2c-2.4-4.4-9.1-2.6-8.9,2.5c0.8,25.7-20.6,44.9-20.9,45c-1.3,1.1-1.9,2.9-1.6,4.5
	c2.8,14.2,20,29.3,26.6,34.6c-1.2,9.6-2.1,19.4-2.8,29.2l-15.2-13.1c-1.4-1.2-3.4-1.5-5-0.8c-2.9,1.3-2.9,3.8-2.9,5.8
	c0,23.8,18.6,41,22.4,44.2c0.4,13.3,1.6,25.6,3.5,36.8c0.5,2.6,2.9,4.4,5.6,3.9c2.6-0.5,4.4-2.9,3.9-5.6c-1.4-8.1-2.4-17-2.9-26.3
	c10.9-1.9,20-0.3,27.2,4.7c11.2,7.7,14.8,21.5,15.5,24.9c-5.3,23.6-11.8,40.4-16.3,46.1c-1.4,1.7-3,1.9-4.4,0
	c-6.3-8.3-11.3-18.9-15-31.4c-0.8-2.6-3.4-4-5.9-3.2s-4,3.4-3.2,5.9c4,13.6,9.5,25.1,16.5,34.4C243.1,449.7,252.2,449.8,257.5,443.1
	L257.5,443.1z M310.1,306.5c-10.3,12.3-19.8,16.5-25.3,17.9c0.6-12.4,0.6-24,0.2-35.5l9.3-5L310.1,306.5z M227.7,133.1
	c8,3.7,18.9,10.7,19.7,21.6c0.5,6.6,10.1,6.8,10.8,0.2c1.1-11,12.3-17.5,20.5-20.9L264.1,184c-1.9-4.8-3.9-9.5-6-14.2
	c-2.6-5.6-10.4-5.8-13.2-0.3c-1.1,2.3-2.8,6.3-4.6,11.8L227.7,133.1z M200.5,253.4c4.8-4.8,16-17.5,20.2-34.9
	c5.9,10.7,5.6,10.3,6.4,11c-3.2,14.2-6.2,29.9-8.6,46.6C211.8,270.1,203.3,261.2,200.5,253.4L200.5,253.4z M202.2,318.7l11.5,9.9
	c-0.2,3.5-0.2,6.9-0.2,10.3C209.4,334.2,204.6,327.1,202.2,318.7z M223.1,351.8c-1.7-65.2,17.4-146,28.3-173.6
	c26,60,29.5,131.5,18.4,195.4C260.6,357.2,244.8,348.5,223.1,351.8L223.1,351.8z"/>
<ellipse cx="251" cy="407.4" rx="7.3" ry="7.3"/>
<g>
	<path class="st0" d="M118.6,285.9l-7.6,13.7c-1.4,2.6-5.3,1.9-5.9-1.1c-3.2-19.2-16.3-33.2-20.5-37.3c-0.8-0.8-1.1-2-0.8-3.2
		c4.5-14.9,26.6-31.5,26.6-31.5l13.9-10.8l2.8,55.3L118.6,285.9z"/>
	<path class="st0" d="M169.4,226.5l12.2,6.5c1.2,0.7,2.8,0.3,3.5-0.8l17.8-25.1c0.8-1.1,0.7-2.4-0.1-3.4
		c-17.8-22.1-34.7-21.7-34.7-21.7l-7.7,0.4v41.5L169.4,226.5z"/>
	<path class="st0" d="M105.8,186.2l9-7.2v-23.9l-9.4,7.3c0,0-19.3,15.6-21.1,37.7c-0.2,1.8,2,2.9,3.3,1.7L105.8,186.2z"/>
	<path class="st0" d="M115,384.5c8.8-3.6,24.3-12,25.3-26.9c0-0.3,0.3-0.6,0.6-0.6c0.3,0,0.6,0.2,0.7,0.6
		c1.6,14.9,17.4,22.7,26.3,26c2.6,0.9,5-1.4,4.3-4.1l-19.6-66.9h-24.5l-17.6,68.1C109.9,383.3,112.4,385.6,115,384.5z"/>
</g>
<path class="st1" d="M137.2,340.4c-11.6-23-58.8-200-7.3-268.5c3.2-4.3,8.6-4.3,11.9-0.1c5,6.3,12.2,24.8,17.8,50.7
	c1.1,5.1,2.2,10.5,3.2,16.1c9.3,54.4,10.6,132.4-21,201.7C141,342.3,138.2,342.4,137.2,340.4L137.2,340.4z"/>
<path class="st2" d="M137.2,340.4c-11.6-23-58.8-200-7.3-268.5c3.2-4.3,8.6-4.3,11.9-0.1c2.5,3.2,5.6,9.4,8.6,18
	c-38.8,55.1-18.1,175-2,234.3c-2,5.4-4.3,10.8-6.8,16.2C141,342.3,138.2,342.4,137.2,340.4L137.2,340.4z"/>
<path d="M126.2,69c-15.2,20.1-23.3,50.5-24.5,90.3c-12.8,11-23,28.3-22.4,45.8c0.2,4,4.9,6.1,7.9,3.5l15.2-13.1
	c0.6,9.4,1.5,19.1,2.8,29.1c-6.6,5.3-23.9,20.4-26.6,34.6c-0.3,1.7,0.2,3.4,1.6,4.5c0.2,0.2,21.6,19.2,20.9,45
	c-0.1,5,6.5,6.8,8.9,2.5l8.5-15.2c1.6,6.3,3.1,12.2,4.6,17.6l-17.2,66c-1.6,6.4,4.8,11.9,10.9,9.4c7.4-3,18.5-8.9,24.4-18.8
	c6.2,9.6,17.6,15.1,25.1,17.8c6.2,2.3,12.4-3.5,10.5-9.8l-19.1-65.4c8-24.6,13-51.1,14.9-79.2l7,3.7c3.4,1.8,7.5,0.8,9.7-2.3
	l17.8-25.1c2-2.7,1.8-6.5-0.3-9.1c-13.8-17.2-27.5-21.8-34.3-23c-3.8-53.1-17.3-97.1-26.6-108.8C140.4,62.2,131.3,62.3,126.2,69
	L126.2,69z M101.7,173.1c0.1,3.4,0.2,6.8,0.2,10.3l-11.5,9.9C92.8,184.9,97.6,177.8,101.7,173.1z M166.7,378
	c-8.2-3.4-19.3-10-20.5-20.9c-0.7-6.5-10.4-6.4-10.8,0.2c-0.8,11-11.6,17.9-19.7,21.6l12.5-48c1.8,5.2,3.4,9.2,4.7,11.7
	c2.8,5.5,10.7,5.3,13.2-0.3c2.1-4.7,4.1-9.4,6-14.2L166.7,378z M198.3,205.5L182.4,228l-9.3-5c0.5-11.5,0.5-23.1-0.2-35.5
	C178.4,189,188,193.2,198.3,205.5z M139.6,333.7c-4.3-11-11.4-35-17.6-65.9c-0.5-2.6-3-4.3-5.6-3.8c-2.6,0.5-4.3,3-3.8,5.6
	c0.9,4.4,1.7,8.6,2.6,12.7c-0.8,0.7-0.4,0.2-6.4,11c-4.3-17.4-15.4-30-20.2-34.9c2.8-7.7,11.3-16.7,18.1-22.7c0.7,5,1.5,10,2.3,15
	c0.5,2.6,2.9,4.4,5.5,3.9c2.6-0.5,4.4-2.9,3.9-5.5c-4.9-29-8-60.1-7.3-89.1c21.7,3.3,37.5-5.4,46.7-21.8
	C169,202.1,165.5,273.6,139.6,333.7L139.6,333.7z M138.2,74.8c4.5,5.7,11,22.5,16.3,46.1c-0.8,3.5-4.4,17.3-15.5,24.9
	c-7.2,5-16.4,6.5-27.2,4.7c2-33.3,9.4-58.8,22.1-75.8C135.2,72.9,136.9,73.1,138.2,74.8z"/>
<ellipse cx="137.5" cy="112" rx="7.1" ry="7.1"/>
</svg>
