<svg height="512" viewBox="0 0 60 60" width="512" xmlns="http://www.w3.org/2000/svg"><g id="Page-1" fill="none" fill-rule="evenodd"><g id="030---Fish-Filleting" fill="rgb(0,0,0)" fill-rule="nonzero" transform="translate(0 -1)"><path id="Shape" d="m21.791 18.005c-.5499484.0466382-.9581278.5300086-.912 1.08.079.948.12 1.929.12 2.916s-.041 1.967-.12 2.915c-.0232707.264785.0598339.5279401.2309563.7313356.1711225.2033956.4161811.3302941.6810437.3526644h.085c.5191579-.000761.9513912-.3986763.995-.916.085-1 .128-2.041.128-3.084s-.043-2.08-.128-3.083c-.0502996-.5480477-.5312691-.9541998-1.08-.912z"/><path id="Shape" d="m59.691 14c-.3879868-.6291889-1.0937304-.9903477-1.831-.937-7.109.486-11.041 3.421-12.782 5.174-3.4570727-2.1083173-7.1835518-3.7391144-11.078-4.848v-3.518c0-6.749-4.608-8.423-6.588-8.829-.5899469-.12419281-1.2044389.02435925-1.6725067.40432472-.4680678.37996546-.7397634.95079791-.7394933 1.55367528v5.879c-1.9127853.80783632-3.6521175 1.9764449-5.123 3.442-1.4527487.2116351-2.891623.5094944-4.309.892-5.3178204 1.4547948-10.31972791 3.8831884-14.752 7.162-.51031746.3770931-.81141776.9739741-.81141776 1.6085s.3011003 1.2314069.81141776 1.6085c1.72707373 1.2604204 3.53495367 2.4062128 5.412 3.43-1.72259936 1.6057047-3.32428698 3.3364097-4.792 5.178-.39924528.5032871-.53242968 1.167721-.358 1.786.16903678.6108704.62498371 1.101144 1.222 1.314 5.14443591 1.9855442 10.6116914 3.002645 16.126 3 1.4626759-.0068913 2.9236257-.1013939 4.375-.283.7048287.3993921 1.4401175.74246 2.199 1.026v18.957c0 1.6568542 1.3431458 3 3 3h5c1.6568542 0 3-1.3431458 3-3s-1.3431458-3-3-3h-.567c.7559917-2.6130863.7559917-5.3869137 0-8h1.567c1.1045695 0 2-.8954305 2-2v-2c0-1.1045695-.8954305-2-2-2v-5.364c4.1688382-2.2984663 7.8398151-5.4018014 10.8-9.13l.474-.55c1.831 1.767 5.728 4.511 12.589 4.981h.126c.7145888-.000659 1.374987-.3810337 1.7341255-.9988177.3591384-.6177841.3628989-1.3798842.0098745-2.0011823-1.0485501-1.810049-1.643163-3.8471043-1.733-5.937.0902072-2.0948761.6872821-4.1365976 1.74-5.95.3618687-.6403564.3430501-1.4276641-.049-2.05zm-32.682-11c1.864.383 4.991 1.784 4.991 6.871v3.017c-.685-.154-1.38-.3-2.095-.416.118902-.889231.1269637-1.7897829.024-2.681-.0637739-.57593153-.3728772-1.0963641-.8480949-1.42792467-.4752176-.33156057-1.070359-.44202177-1.6329051-.30307533-.155.037-.3.088-.446.13zm-10.929 12.146c.065-.017.123-.027.188-.044.4909102 2.2663902.7363251 4.5790566.732 6.898.0041402 2.3157999-.2402592 4.6253572-.729 6.889-.069-.018-.13-.029-.2-.047-5.0733911-1.4000571-9.8458531-3.721713-14.079-6.849 4.23234319-3.1336199 9.009102-5.4552033 14.088-6.847zm7.72 21.139c-.3782998-.2211728-.819806-.3091923-1.254-.25-1.3755425.170255-2.7599752.2587438-4.146.265-5.2642999-.0085541-10.48294283-.976714-15.4-2.857 1.55534054-1.9522174 3.26915836-3.7727307 5.124-5.443 2.3836854 1.1600121 4.8726349 2.089894 7.433 2.777 1.4139891.3847082 2.8499414.6835866 4.3.895 1.4770341 1.4704156 3.2230772 2.6430449 5.143 3.454v1.774c-.412-.187-.814-.392-1.2-.615zm10.2 8.715h-2.257c-.4878863.0003506-.9451214.2379614-1.2258131.6370171-.2806916.3990556-.3497674.9096938-.1851869 1.3689829.8906779 2.5881824.8906779 5.3998176 0 7.988-.1645805.4592891-.0955047.9699273.1851869 1.3689829.2806917.3990557.7379268.6366665 1.2258131.6370171h1.257c.5522847 0 1 .4477153 1 1s-.4477153 1-1 1h-5c-.5522847 0-1-.4477153-1-1v-15h7zm-7-4v-5.184c.148.041.285.091.437.128.1546186.0369675.3130237.0557613.472.056 1.0241957-.000139 1.8850133-.7692796 2-1.787.1040119-.8907326.0972941-1.790919-.02-2.68.719-.118 1.418-.262 2.107-.416v9.883zm7-7.641v-2.741c2.2664645-.6370196 4.4776775-1.4563589 6.612-2.45-1.9480556 2.0336153-4.1741317 3.7812803-6.612 5.191zm22-11.359c.0973551 2.4413835.7835136 4.8230398 2 6.942-6.15-.42-9.653-2.867-11.22-4.322.2681707-.3361655.2883822-.807094.05-1.165-.1482917-.2201169-.3780049-.3722538-.6385373-.4228972-.2605323-.0506435-.5305106.0043612-.7504627.1528972-4.8480234 3.2328498-10.3201189 5.4131032-16.063 6.4-.1435388-.3657291-.3105532-.7218038-.5-1.066-.1677656-.3220418-.4969212-.5278335-.8599093-.537625-.3629881-.0097914-.7027592.1779564-.887642.4904857-.1848829.3125292-.1858202.7007209-.0024487 1.0141393.2556977.4638794.4586295.954941.605 1.464v.041c.2587997.9812606.3176325 2.0045444.173 3.009-2.5071958-.6177057-4.7975695-1.9096937-6.623-3.736-.3053092-.3113392-.705115-.5128244-1.137-.573-.627-.09-1.268-.2-1.93-.341.5285258-2.4140885.7914223-4.8787437.784-7.35.0080382-2.4739317-.2548621-4.9413047-.784-7.358.665-.137 1.31-.25 1.942-.339.4318169-.0603937.831556-.2618453 1.137-.573 1.8310149-1.8267363 4.1302796-3.1132173 6.645-3.718.1269867 1.0032291.0611397 2.0214817-.194 3v.009c0 .011-.012.019-.015.031-.1457466.5095957-.3487051 1.0010573-.605 1.465-.250743.4813245-.0717952 1.0747909.4032282 1.3372752.4750234.2624844 1.0727043.0981608 1.3467718-.3702752.1888609-.3438068.3558588-.6991783.5-1.064 5.7448332.9932046 11.2173792 3.1806559 16.064 6.421.2195868.1488269.4893092.2043079.7498094.1542334.2605002-.0500746.4904307-.2016012.6391906-.4212334.2430617-.365118.2166006-.8467096-.065-1.183 1.559-1.453 5.066-3.912 11.236-4.331-1.2203157 2.1166097-1.9067635 4.4985836-2 6.94z"/><circle id="Oval" cx="11.999" cy="20.997" r="1"/></g></g></svg>