<?xml version="1.0" encoding="utf-8"?>
<!-- Generator: Adobe Illustrator 24.2.0, SVG Export Plug-In . SVG Version: 6.00 Build 0)  -->
<svg version="1.1" xmlns="http://www.w3.org/2000/svg" xmlns:xlink="http://www.w3.org/1999/xlink" x="0px" y="0px"
	 viewBox="0 0 1024 1024" style="enable-background:new 0 0 1024 1024;" xml:space="preserve">
<style type="text/css">
	.st0{display:none;}
	.st1{display:inline;}
	.st2{display:inline;fill:none;stroke:#000000;stroke-width:30;stroke-miterlimit:10;}
	.st3{fill:none;stroke:#000000;stroke-width:27;stroke-linecap:round;stroke-linejoin:round;stroke-miterlimit:10;}
	.st4{fill:none;stroke:#000000;stroke-width:27;stroke-linejoin:round;stroke-miterlimit:10;}
	.st5{display:inline;fill:#FFFFFF;}
	.st6{display:inline;fill:none;stroke:#000000;stroke-width:27;stroke-linejoin:round;stroke-miterlimit:10;}
	.st7{display:inline;fill:none;stroke:#000000;stroke-width:27;stroke-linecap:round;stroke-linejoin:round;stroke-miterlimit:10;}
	
		.st8{display:inline;fill:#FFFFFF;stroke:#000000;stroke-width:27;stroke-linecap:round;stroke-linejoin:round;stroke-miterlimit:10;}
	.st9{display:inline;fill:none;stroke:#000000;stroke-width:27;stroke-linecap:round;stroke-miterlimit:10;}
	.st10{display:inline;fill:none;stroke:#000000;stroke-width:20;stroke-miterlimit:10;}
	.st11{display:inline;fill:none;stroke:#000000;stroke-width:27;stroke-miterlimit:10;}
</style>
<g id="Layer_1" class="st0">
	<g class="st1">
		<path d="M520.92,166.74c33.66,0,66.29,6.58,96.99,19.57c29.67,12.55,56.33,30.52,79.22,53.42c22.9,22.9,40.87,49.55,53.42,79.22
			c12.99,30.7,19.57,63.34,19.57,96.99s-6.58,66.29-19.57,96.99c-12.55,29.67-30.52,56.33-53.42,79.22
			c-22.9,22.9-49.55,40.87-79.22,53.42c-30.7,12.99-63.34,19.57-96.99,19.57s-66.29-6.58-96.99-19.57
			c-29.67-12.55-56.33-30.52-79.22-53.42c-22.9-22.9-40.87-49.55-53.42-79.22c-12.99-30.7-19.57-63.34-19.57-96.99
			s6.58-66.29,19.57-96.99c12.55-29.67,30.52-56.33,53.42-79.22c22.9-22.9,49.55-40.87,79.22-53.42
			C454.63,173.33,487.26,166.74,520.92,166.74 M520.92,136.74c-154.2,0-279.2,125-279.2,279.2s125,279.2,279.2,279.2
			s279.2-125,279.2-279.2S675.12,136.74,520.92,136.74L520.92,136.74z"/>
	</g>
	<g class="st1">
		<path d="M520.92,308.56l17.37,53.47l6.74,20.73h21.8h56.22l-45.49,33.05l-17.63,12.81l6.74,20.73l17.37,53.47l-45.49-33.05
			l-17.63-12.81l-17.63,12.81l-45.49,33.05l17.37-53.47l6.74-20.73l-17.63-12.81l-45.49-33.05h56.22h21.8l6.74-20.73L520.92,308.56
			 M520.92,211.48l-45.91,141.28H326.46l120.18,87.32l-45.91,141.28l120.18-87.32l120.18,87.32l-45.91-141.28l120.18-87.32H566.82
			L520.92,211.48L520.92,211.48z"/>
	</g>
	<g class="st1">
		<path d="M520.92,308.8l17.37,53.47l6.74,20.73h21.8h56.22l-45.49,33.05l-17.63,12.81l6.74,20.73l17.37,53.47l-45.49-33.05
			l-17.63-12.81l-17.63,12.81l-45.49,33.05l17.37-53.47l6.74-20.73l-17.63-12.81L418.79,383h56.22h21.8l6.74-20.73L520.92,308.8
			 M520.92,211.72L475.01,353H326.46l120.18,87.32L400.73,581.6l120.18-87.32L641.1,581.6l-45.91-141.28L715.38,353H566.82
			L520.92,211.72L520.92,211.72z"/>
	</g>
	<polyline class="st2" points="779.72,620.47 926.74,832.6 812.99,820.23 784.5,931.64 637.27,719.2 	"/>
	<polyline class="st2" points="258.29,621.47 111.27,833.6 225.02,821.23 253.51,932.64 400.74,720.2 	"/>
	<g class="st1">
		<path d="M520,66.72l88.68,57.34l6.82,4.41l8.12,0.37l105.93,4.78l37.25,97.13l2.97,7.74l6.52,5.12l82.41,64.65l-27.91,99.66
			l-2.27,8.09l2.27,8.09l27.91,99.66l-82.41,64.65l-6.52,5.12l-2.97,7.74l-37.25,97.13l-105.93,4.78l-8.12,0.37l-6.82,4.41
			L520,765.28l-88.68-57.34l-6.82-4.41l-8.12-0.37l-105.93-4.78l-37.25-97.13l-2.97-7.74l-6.52-5.12l-82.41-64.65l27.91-99.66
			l2.27-8.09l-2.27-8.09l-27.91-99.66l82.41-64.65l6.52-5.12l2.97-7.74l37.25-97.13l105.93-4.78l8.12-0.37l6.82-4.41L520,66.72
			 M520,31L415.03,98.87l-125.56,5.66L245.19,220L147,297.03L180.31,416L147,534.97L245.19,612l44.28,115.47l125.56,5.66L520,801
			l104.97-67.87l125.56-5.66L794.81,612L893,534.97L859.69,416L893,297.03L794.81,220l-44.28-115.47l-125.56-5.66L520,31L520,31z"/>
	</g>
</g>
<g id="Layer_2" class="st0">
	<g class="st1">
		<path class="st3" d="M549.5,215.99c0,0-66.98-32.96-123.33,7.44c0,0-231.78,261.55-226.46,404.02c0,0-18.07,173.3,224.34,188.19
			c0,0,249.85,15.95,267.93-122.27c0,0,21.26-86.12-83.99-179.68c0,0-60.6-80.8-20.2-166.92
			C587.77,346.76,626.05,239.38,549.5,215.99z"/>
		<path class="st4" d="M512.5,174.5c0,0,34.49-104.28,89.98-122.8c0,0,32.96,1.99,48.38,33.08c0,0-49.36,31.72-86.36,103.72"/>
		<path class="st3" d="M463.38,292.54c0,0-32.96,12.76-77.61,109.51c0,0-34.55,55.82,48.38,70.7c0,0,102.07,27.64,79.74-40.4
			c0,0-25.52-40.4-10.63-87.18C503.25,345.17,517.07,284.56,463.38,292.54z"/>
		<path class="st3" d="M355.99,554.08c0,0-69.11,8.51-72.3,93.56c0,0-10.63,59.54,74.42,86.12c0,0,131.84,38.28,212.64-5.32
			c0,0,47.84-20.2,37.21-91.44c0,0-8.51-63.79-82.93-76.55C525.04,560.46,431.48,534.95,355.99,554.08z"/>
	</g>
	<path class="st5" d="M309,811c0,0,126-38,171-107c0,0,158-246,340-113l-14,128L675,856l-187,46l-154-32L309,811z"/>
	<g class="st1">
		<path class="st3" d="M389.17,817.59c0,0,49.14-3.21,129.15-97.62c0,0,88.21-116.07,177.03-127.15c0,0,131.41-22.32,183.49,103.18
			c0,0,63.97,133.45-95.93,232.02c0,0-100.65,65.39-249.75,29.55c0,0-66.12-14.44-134.01-22.78
			C399.14,934.79,376.3,848.7,389.17,817.59z"/>
		<path class="st3" d="M805.04,758.83c0,0,15.29,86-83.63,114.17"/>
		<path class="st3" d="M385.24,841.77l-97.06,14.51c0,0-32.35-52.08-76.94-24.98c0,0-31.99,18.65-17.55,53.46
			c0,0,8.97,24.2,39.63,30.8"/>
		<path class="st3" d="M395.21,914.95L292.8,929.53c0,0-8.61,46.53-51.94,43.03c0,0-50.28,0.46-39.95-70.4"/>
	</g>
</g>
<g id="Layer_3" class="st0">
	<path class="st6" d="M512.65,425.28c0,0-206.89-5.63-235.63,151.98c0,0-16.09,82.18,60.92,153.11c0,0,70.11,82.18,174.71,78.81
		c0,0,91.95,4.5,172.41-77.68c0,0,72.41-67.55,60.92-160.99C745.98,570.51,711.5,420.78,512.65,425.28z"/>
	<polyline class="st7" points="296,676.64 200.02,741.64 155.19,830.58 	"/>
	<polyline class="st7" points="337.95,730.38 249.44,790.05 205.77,872.23 	"/>
	<polyline class="st7" points="383.92,773.16 309.21,827.2 272.43,894.75 	"/>
	<polyline class="st7" points="727.02,678.89 822.99,743.89 867.82,832.83 	"/>
	<polyline class="st7" points="685.06,732.63 773.57,792.3 817.25,874.48 	"/>
	<polyline class="st7" points="639.09,775.41 713.8,829.45 750.58,897 	"/>
	<path class="st7" d="M291.29,533.32l-144.14-44.99c0,0-42.53-12.38-58.62,32.65c0,0-8.05,39.4,33.33,52.91
		c0,0,83.43,19.93,153.78,20.66C275.64,594.55,276.81,558.05,291.29,533.32z"/>
	<path class="st7" d="M52.9,471.44c0,0,52.87-77.68,152.87-9.01c0,0,156.32-58.54,189.65-212.78c0,0-79.31,49.54-159.77,64.17
		c0,0-25.29-103.57,126.43-151.98c0,0-227.58-68.67-331.03,208.28C31.06,370.12,2.32,439.92,52.9,471.44z"/>
	<path class="st7" d="M731.64,533.32l144.14-44.99c0,0,42.53-12.38,58.62,32.65c0,0,8.05,39.4-33.33,52.91
		c0,0-83.43,19.93-153.78,20.66C747.29,594.55,746.11,558.05,731.64,533.32z"/>
	<path class="st7" d="M970.03,471.44c0,0-52.87-77.68-152.87-9.01c0,0-156.32-58.54-189.65-212.78c0,0,79.31,49.54,159.77,64.17
		c0,0,25.29-103.57-126.43-151.98c0,0,227.58-68.67,331.03,208.28C991.87,370.12,1020.6,439.92,970.03,471.44z"/>
	<ellipse class="st8" cx="417.83" cy="439.36" rx="46.55" ry="45.6"/>
	<ellipse class="st8" cx="602.88" cy="438.23" rx="46.55" ry="45.6"/>
</g>
<g id="Layer_4" class="st0">
	<path class="st9" d="M946.5,540.5c0,0-98-46-122-125c0,0-46-163-219-161c0,0-171-22-370,269c0,0-62,100-76,177c0,0-158-187,0-343
		c0,0,2,113,98,219c0,0,143,215,310,214C567.5,790.5,797.5,797.5,946.5,540.5z"/>
	<path class="st9" d="M695.8,270.92c0,0-254.3-179.42-455.3-0.42c0,0,118.98,96.02,25.49,210.51"/>
	<path class="st9" d="M266.02,588.56c0,0,43.48,96.94-25.52,171.94c0,0,153.3,176.7,493.15-13.15"/>
	<g class="st1">
		<path d="M751.5,372.5c-2.6,2.4-5.03,4.87-7.37,7.41c-2.35,2.52-4.61,5.08-6.77,7.7c-4.38,5.19-8.42,10.57-12.22,16.04
			c-3.78,5.49-7.36,11.05-10.65,16.76c-1.64,2.86-3.25,5.71-4.76,8.63c-0.79,1.44-1.56,2.87-2.28,4.35
			c-0.72,1.47-1.48,2.92-2.18,4.4c-2.83,5.9-5.43,11.88-7.89,17.91c-2.35,6.08-4.68,12.16-6.65,18.39
			c-4.07,12.39-7.41,25.05-10.12,37.93l0.24-2.52l0.01,0.97l0.03,1.23l0.12,2.57c0.1,1.74,0.25,3.5,0.42,5.28
			c0.35,3.55,0.78,7.13,1.34,10.71c1.09,7.16,2.53,14.33,4.3,21.43c3.51,14.22,8.26,28.23,14.16,41.86
			c5.93,13.62,12.97,26.88,21.08,39.68c8.08,12.84,17.32,25.1,27.18,37.28c-13.33-8.25-25.58-18.38-36.64-29.81
			c-11.04-11.45-20.9-24.24-29.16-38.09c-8.29-13.83-15.1-28.65-20.16-44.12c-2.53-7.74-4.63-15.64-6.26-23.7
			c-0.79-4.03-1.5-8.1-2.04-12.22c-0.27-2.07-0.5-4.14-0.69-6.26c-0.1-1.06-0.18-2.13-0.25-3.21l-0.1-1.66l-0.03-0.87l-0.02-1.06
			l-0.02-1.04l0.26-1.49c2.51-14.18,6.32-28.21,11.51-41.76c2.55-6.79,5.59-13.42,8.86-19.9c3.35-6.46,7.03-12.75,11.09-18.79
			c8.14-12.05,17.73-23.14,28.73-32.53c5.47-4.71,11.33-8.96,17.47-12.66c1.53-0.93,3.11-1.79,4.67-2.66
			c1.59-0.83,3.19-1.64,4.8-2.4C744.75,374.79,748.06,373.4,751.5,372.5z"/>
	</g>
	<circle class="st10" cx="796.5" cy="530.5" r="28.5"/>
	<g class="st1">
		<path d="M633.5,316.5c-6.57,7.19-12.74,14.53-18.64,22.02c-2.97,3.72-5.81,7.53-8.64,11.32c-1.41,1.9-2.78,3.82-4.14,5.75
			c-1.37,1.92-2.73,3.84-4.05,5.78c-10.62,15.52-20.04,31.59-27.86,48.22c-7.82,16.62-14.15,33.76-18.41,51.34
			c-2.19,8.77-3.82,17.66-5.04,26.59c-1.16,8.94-1.84,17.94-2.07,26.98l-0.04-0.98l0.12,1.42l0.17,1.65
			c0.12,1.12,0.26,2.25,0.41,3.39c0.3,2.28,0.65,4.58,1.04,6.88c0.78,4.61,1.64,9.24,2.66,13.84c1.01,4.61,2.16,9.2,3.42,13.77
			c1.26,4.57,2.57,9.13,4.03,13.66c1.45,4.52,3.02,9.02,4.7,13.47c1.65,4.47,3.4,8.9,5.26,13.3c1.86,4.4,3.88,8.72,5.91,13.05
			c2.04,4.32,4.21,8.59,6.49,12.81c9.03,16.91,19.75,33.01,31.9,48.19c6.11,7.56,12.55,14.92,19.38,21.98
			c6.81,7.09,13.98,13.9,21.39,20.58c-8.84-4.62-17.34-9.94-25.56-15.72c-8.2-5.82-16.04-12.19-23.54-19
			c-14.96-13.66-28.29-29.27-39.76-46.22c-5.73-8.48-11-17.29-15.75-26.4c-2.37-4.55-4.64-9.16-6.79-13.83
			c-2.11-4.69-4.11-9.43-5.98-14.22c-3.78-9.58-6.99-19.39-9.66-29.4c-1.33-5-2.57-10.05-3.58-15.18c-0.51-2.56-0.97-5.15-1.39-7.76
			c-0.21-1.31-0.41-2.63-0.59-3.97l-0.26-2.04l-0.12-1.06l-0.12-1.22l-0.02-0.22l-0.01-0.76c-0.39-20.31,2.2-40.75,7.62-60.33
			c5.46-19.57,13.54-38.3,23.89-55.49c10.34-17.19,22.76-32.93,36.78-46.85c1.76-1.74,3.53-3.45,5.32-5.14
			c1.82-1.67,3.64-3.32,5.49-4.94c3.68-3.27,7.52-6.35,11.39-9.36c3.92-2.96,7.89-5.83,11.99-8.51
			C624.94,321.22,629.11,318.66,633.5,316.5z"/>
	</g>
	<g class="st1">
		<path d="M487.5,336.5c-5.5,7.7-10.46,15.57-15.15,23.55c-4.7,7.97-9.02,16.08-13.07,24.26c-8.06,16.39-14.8,33.2-20.14,50.31
			c-5.35,17.11-9.22,34.53-11.64,52.12c-2.4,17.59-3.25,35.36-2.68,53.14l-0.18-1.65l0.18,1.01l0.26,1.27
			c0.18,0.86,0.39,1.76,0.6,2.65c0.44,1.8,0.91,3.61,1.42,5.43c1,3.65,2.14,7.31,3.38,10.96c2.44,7.31,5.26,14.57,8.35,21.74
			c3.08,7.18,6.45,14.28,10.04,21.29c3.59,7.02,7.49,13.9,11.47,20.77c8.16,13.61,17.02,26.96,26.65,39.9
			c9.59,12.99,19.89,25.58,30.49,38.25c-14.01-8.76-27.07-19.02-39.36-30.25c-6.18-5.58-12.02-11.54-17.73-17.65
			c-5.64-6.17-11.08-12.56-16.24-19.2c-10.27-13.31-19.54-27.52-27.35-42.65c-3.91-7.56-7.47-15.34-10.59-23.37
			c-1.57-4.01-3.01-8.09-4.34-12.26c-0.66-2.08-1.28-4.2-1.87-6.35c-0.29-1.09-0.58-2.16-0.85-3.29l-0.4-1.71l-0.2-0.9l-0.22-1.09
			l-0.12-0.59l-0.06-1.06c-1.14-19.48-0.11-39.16,3.2-58.43c3.32-19.27,8.91-38.12,16.61-55.96c7.69-17.84,17.48-34.68,29.05-50.01
			c5.78-7.67,12.06-14.93,18.75-21.74c1.68-1.69,3.4-3.35,5.12-5c1.74-1.63,3.52-3.22,5.31-4.78
			C479.83,342.11,483.53,339.11,487.5,336.5z"/>
	</g>
	<path class="st11" d="M297.69,227.91c0,0,81.45,49.59,64.13,145.59"/>
	<path class="st11" d="M379.5,198.5c0,0,57,34,57,122"/>
	<path class="st11" d="M464.5,191.5c0,0,40,21,37,95"/>
	<path class="st11" d="M348.38,682.45c0,0,18.54,69.21-43.17,123.13"/>
	<path class="st11" d="M411.19,734.27c0,0,8.31,65.17-31.69,95.2"/>
	<path class="st11" d="M477.59,771.42c0,0,10.34,34.63-21.88,63.86"/>
</g>
<g id="Layer_5">
	<g>
		<path d="M287.21,936.72c3.6-12.62,6.34-25.19,10.82-37.1c4.38-11.64,10.53-22.61,16.17-34.45
			c-106.96-53.74-179.05-137.56-212.66-253.02c-20.61-70.78-20.32-142.09-0.87-214.13c2.36,22.39,3.88,43.94,7.05,65.25
			c4.75,31.9,13.46,62.62,32.85,89.22c19.38,26.58,45.85,39.98,78.49,42.7c34.37,2.86,64.4-7.97,93.59-25.12
			c44.06-25.9,88.17-51.98,133.89-74.71c59.1-29.39,122.3-44.93,188.84-43.9c70.73,1.1,136.04,21.78,197.22,56.31
			c15.88,8.96,30.95,19.34,46.53,28.84c4.64,2.83,6.15,5.99,5.46,11.64c-11.79,97.36-52.84,180.25-124.23,247.37
			c-66.8,62.79-146.59,97.98-237.98,106.38c-13.98,1.29-28.14,0.71-42.13,1.92c-6.17,0.54-12.99,2.1-18.06,5.42
			c-51.21,33.64-106.32,44.79-166.19,30.12C293.43,938.81,290.93,937.88,287.21,936.72z M378.2,850.33
			c26.61,8.86,52.07,13.65,77.95,15.63c86.41,6.59,165.97-14.06,237.27-63.27c82.88-57.21,132.51-136.46,151.57-235.14
			c1.25-6.49-0.21-10.63-6.28-13.8c-20.91-10.96-41.1-23.46-62.54-33.25c-62.18-28.4-127.31-38.57-195.31-28.83
			c-56.2,8.05-108.03,28.54-157.28,55.78c-35.6,19.69-69.96,41.62-105.64,61.16c-59.94,32.82-119.7,34.09-178.2-4.39
			c-0.26-0.17-0.96,0.33-1.85,0.66c0.37,1.68,0.6,3.42,1.13,5.08c32.74,102.02,97.41,176.3,193.82,223.12
			c5.37,2.61,8.27,1.36,12.28-2.41c28.26-26.6,61.04-46.02,97.09-60.11c2.05-0.8,4.26-1.18,7.08-1.94c0,10.22-0.43,19.51,0.14,28.74
			c0.44,7.23-1.93,11.01-8.84,14.02C418.58,820.97,398.29,833.54,378.2,850.33z M406.58,896.79c-18.54-5.53-35.82-10.74-53.16-15.74
			c-1.37-0.39-3.99,0.14-4.61,1.13c-5.27,8.33-10.2,16.87-15.69,26.1C355.21,911.24,386.79,906.16,406.58,896.79z"/>
		<path d="M167.42,534.05c-7.04-8.93-15.12-17.23-20.9-26.91c-13.27-22.22-19.01-47.1-21.59-72.55
			c-4.7-46.26-0.68-91.59,19.06-134.32c15.56-33.69,39.96-61.07,66.62-86.21c75.52-71.23,165.59-108.32,269.33-110.15
			c30.93-0.54,60.9,7.84,90.4,22.86c-12.05,18.09-23.07,35.84-35.32,52.69c-12.34,16.98-28.87,29.21-49.15,36.76
			c5.45,9.18,10.68,17.51,15.43,26.09c19.8,35.75,27,74.53,26.72,114.91c-0.02,2.88-3.86,7.08-6.9,8.38
			c-26.81,11.45-54.7,11.33-81.77,2.81c-31.32-9.85-61.64-22.8-92.7-33.51c-17.46-6.02-35.27-11.72-53.4-14.94
			c-35.09-6.24-63.03,9.67-85.23,34.53c-45.66,51.14-61.56,109.64-38.37,176.2c0.17,0.48-0.1,1.1-0.16,1.66
			C168.79,532.92,168.11,533.48,167.42,534.05z M515.5,144.27c-16.26-1.52-30.41-4.58-44.36-3.85
			c-88.39,4.63-165.87,36.33-231.23,96.29c-24.12,22.13-45.82,46.54-61.12,75.82c-4.52,8.64-7.34,18.17-10.94,27.29
			c0.76,0.35,1.53,0.71,2.29,1.06c2.41-2.57,4.81-5.13,7.22-7.7c19.05-20.39,40.49-37.27,67.57-45.78
			c30.51-9.59,60.63-5.52,89.9,4.57c30.22,10.42,59.5,23.62,89.84,33.6c18.24,6,37.7,8.44,56.71,11.93c7.08,1.3,9.7-1.9,8.78-9.87
			c-3.93-33.8-16.21-64.11-35.89-91.67c-9.28-13-18.26-26.2-27.9-40.07c16.1-5.01,30.84-9.83,45.73-14.16
			C491.21,176.14,502.84,162.13,515.5,144.27z"/>
		<path d="M687.73,348.79c-40.17,0.08-72.52-32.22-72.42-72.32c0.09-39.52,32.46-71.61,72.26-71.64
			c39.83-0.03,72.11,31.87,72.34,71.49C760.16,316.46,728.04,348.71,687.73,348.79z M641.54,261.86
			c0.09,17.78,15.12,32.63,32.79,32.39c17.73-0.24,32.44-15.34,32.21-33.08c-0.22-17.3-14.99-31.75-32.44-31.75
			C656.05,229.42,641.45,243.97,641.54,261.86z"/>
		<path d="M921.16,567.27c20.56,73.75-8.97,179.8-106.24,229.37c27.8-32.4,51.25-67.61,69.36-106.26
			C902.48,651.55,914.41,610.8,921.16,567.27z"/>
		<path d="M668.69,414.54c73.25-22.48,171.29,5.34,221.34,82.2C822.58,453.33,750.23,423.07,668.69,414.54z"/>
		<path d="M667,775.02c-14.01,7.6-25.89,14.3-38.08,20.38c-2.02,1.01-5.82-0.01-8.1-1.32c-59.97-34.42-94.79-86.01-104.74-154.34
			c-4.34-29.78-1.11-58.99,7.37-87.77c1.59-5.38,4.14-8.68,9.9-10.01c11.82-2.74,23.5-6.09,37.78-9.86
			c-23.75,48.52-27.08,95.94-8.27,143.71C581.71,723.7,616.62,756.04,667,775.02z"/>
		<path d="M659.51,558.52c0.02-17.5,13.94-31.5,31.31-31.49c17.13,0.01,31.36,14.32,31.41,31.58c0.05,17.26-14.23,31.45-31.5,31.3
			C672.95,589.75,659.49,576.21,659.51,558.52z"/>
	</g>
</g>
</svg>
