<?xml version="1.0" encoding="utf-8"?>
<!-- Generator: Adobe Illustrator 24.2.0, SVG Export Plug-In . SVG Version: 6.00 Build 0)  -->
<svg version="1.1" xmlns="http://www.w3.org/2000/svg" xmlns:xlink="http://www.w3.org/1999/xlink" x="0px" y="0px"
	 viewBox="0 0 1024 1024" style="enable-background:new 0 0 1024 1024;" xml:space="preserve">
<style type="text/css">
	.st0{display:none;}
	.st1{display:inline;}
	.st2{display:inline;fill:none;stroke:#000000;stroke-width:30;stroke-miterlimit:10;}
	.st3{fill:none;stroke:#000000;stroke-width:27;stroke-linecap:round;stroke-linejoin:round;stroke-miterlimit:10;}
	.st4{fill:none;stroke:#000000;stroke-width:27;stroke-linejoin:round;stroke-miterlimit:10;}
	.st5{display:inline;fill:#FFFFFF;}
	.st6{display:inline;fill:none;stroke:#000000;stroke-width:27;stroke-linejoin:round;stroke-miterlimit:10;}
	.st7{display:inline;fill:none;stroke:#000000;stroke-width:27;stroke-linecap:round;stroke-linejoin:round;stroke-miterlimit:10;}
	
		.st8{display:inline;fill:#FFFFFF;stroke:#000000;stroke-width:27;stroke-linecap:round;stroke-linejoin:round;stroke-miterlimit:10;}
	.st9{fill:none;stroke:#000000;stroke-width:27;stroke-linecap:round;stroke-miterlimit:10;}
	.st10{fill:none;stroke:#000000;stroke-width:20;stroke-miterlimit:10;}
	.st11{fill:none;stroke:#000000;stroke-width:27;stroke-miterlimit:10;}
	.st12{fill:none;stroke:#000000;stroke-width:31;stroke-linejoin:round;stroke-miterlimit:10;}
	.st13{stroke:#000000;stroke-width:0.25;stroke-miterlimit:10;}
	.st14{fill:none;stroke:#000000;stroke-width:29;stroke-miterlimit:10;}
	.st15{display:inline;fill:none;stroke:#000000;stroke-width:31;stroke-linejoin:round;stroke-miterlimit:10;}
</style>
<g id="Layer_1" class="st0">
	<g class="st1">
		<path d="M520.92,166.74c33.66,0,66.29,6.58,96.99,19.57c29.67,12.55,56.33,30.52,79.22,53.42c22.9,22.9,40.87,49.55,53.42,79.22
			c12.99,30.7,19.57,63.34,19.57,96.99s-6.58,66.29-19.57,96.99c-12.55,29.67-30.52,56.33-53.42,79.22
			c-22.9,22.9-49.55,40.87-79.22,53.42c-30.7,12.99-63.34,19.57-96.99,19.57s-66.29-6.58-96.99-19.57
			c-29.67-12.55-56.33-30.52-79.22-53.42c-22.9-22.9-40.87-49.55-53.42-79.22c-12.99-30.7-19.57-63.34-19.57-96.99
			s6.58-66.29,19.57-96.99c12.55-29.67,30.52-56.33,53.42-79.22c22.9-22.9,49.55-40.87,79.22-53.42
			C454.63,173.33,487.26,166.74,520.92,166.74 M520.92,136.74c-154.2,0-279.2,125-279.2,279.2s125,279.2,279.2,279.2
			s279.2-125,279.2-279.2S675.12,136.74,520.92,136.74L520.92,136.74z"/>
	</g>
	<g class="st1">
		<path d="M520.92,308.56l17.37,53.47l6.74,20.73h21.8h56.22l-45.49,33.05l-17.63,12.81l6.74,20.73l17.37,53.47l-45.49-33.05
			l-17.63-12.81l-17.63,12.81l-45.49,33.05l17.37-53.47l6.74-20.73l-17.63-12.81l-45.49-33.05h56.22h21.8l6.74-20.73L520.92,308.56
			 M520.92,211.48l-45.91,141.28H326.46l120.18,87.32l-45.91,141.28l120.18-87.32l120.18,87.32l-45.91-141.28l120.18-87.32H566.82
			L520.92,211.48L520.92,211.48z"/>
	</g>
	<g class="st1">
		<path d="M520.92,308.8l17.37,53.47l6.74,20.73h21.8h56.22l-45.49,33.05l-17.63,12.81l6.74,20.73l17.37,53.47l-45.49-33.05
			l-17.63-12.81l-17.63,12.81l-45.49,33.05l17.37-53.47l6.74-20.73l-17.63-12.81L418.79,383h56.22h21.8l6.74-20.73L520.92,308.8
			 M520.92,211.72L475.01,353H326.46l120.18,87.32L400.73,581.6l120.18-87.32L641.1,581.6l-45.91-141.28L715.38,353H566.82
			L520.92,211.72L520.92,211.72z"/>
	</g>
	<polyline class="st2" points="779.72,620.47 926.74,832.6 812.99,820.23 784.5,931.64 637.27,719.2 	"/>
	<polyline class="st2" points="258.29,621.47 111.27,833.6 225.02,821.23 253.51,932.64 400.74,720.2 	"/>
	<g class="st1">
		<path d="M520,66.72l88.68,57.34l6.82,4.41l8.12,0.37l105.93,4.78l37.25,97.13l2.97,7.74l6.52,5.12l82.41,64.65l-27.91,99.66
			l-2.27,8.09l2.27,8.09l27.91,99.66l-82.41,64.65l-6.52,5.12l-2.97,7.74l-37.25,97.13l-105.93,4.78l-8.12,0.37l-6.82,4.41
			L520,765.28l-88.68-57.34l-6.82-4.41l-8.12-0.37l-105.93-4.78l-37.25-97.13l-2.97-7.74l-6.52-5.12l-82.41-64.65l27.91-99.66
			l2.27-8.09l-2.27-8.09l-27.91-99.66l82.41-64.65l6.52-5.12l2.97-7.74l37.25-97.13l105.93-4.78l8.12-0.37l6.82-4.41L520,66.72
			 M520,31L415.03,98.87l-125.56,5.66L245.19,220L147,297.03L180.31,416L147,534.97L245.19,612l44.28,115.47l125.56,5.66L520,801
			l104.97-67.87l125.56-5.66L794.81,612L893,534.97L859.69,416L893,297.03L794.81,220l-44.28-115.47l-125.56-5.66L520,31L520,31z"/>
	</g>
</g>
<g id="Layer_2" class="st0">
	<g class="st1">
		<path class="st3" d="M549.5,215.99c0,0-66.98-32.96-123.33,7.44c0,0-231.78,261.55-226.46,404.02c0,0-18.07,173.3,224.34,188.19
			c0,0,249.85,15.95,267.93-122.27c0,0,21.26-86.12-83.99-179.68c0,0-60.6-80.8-20.2-166.92
			C587.77,346.76,626.05,239.38,549.5,215.99z"/>
		<path class="st4" d="M512.5,174.5c0,0,34.49-104.28,89.98-122.8c0,0,32.96,1.99,48.38,33.08c0,0-49.36,31.72-86.36,103.72"/>
		<path class="st3" d="M463.38,292.54c0,0-32.96,12.76-77.61,109.51c0,0-34.55,55.82,48.38,70.7c0,0,102.07,27.64,79.74-40.4
			c0,0-25.52-40.4-10.63-87.18C503.25,345.17,517.07,284.56,463.38,292.54z"/>
		<path class="st3" d="M355.99,554.08c0,0-69.11,8.51-72.3,93.56c0,0-10.63,59.54,74.42,86.12c0,0,131.84,38.28,212.64-5.32
			c0,0,47.84-20.2,37.21-91.44c0,0-8.51-63.79-82.93-76.55C525.04,560.46,431.48,534.95,355.99,554.08z"/>
	</g>
	<path class="st5" d="M309,811c0,0,126-38,171-107c0,0,158-246,340-113l-14,128L675,856l-187,46l-154-32L309,811z"/>
	<g class="st1">
		<path class="st3" d="M389.17,817.59c0,0,49.14-3.21,129.15-97.62c0,0,88.21-116.07,177.03-127.15c0,0,131.41-22.32,183.49,103.18
			c0,0,63.97,133.45-95.93,232.02c0,0-100.65,65.39-249.75,29.55c0,0-66.12-14.44-134.01-22.78
			C399.14,934.79,376.3,848.7,389.17,817.59z"/>
		<path class="st3" d="M805.04,758.83c0,0,15.29,86-83.63,114.17"/>
		<path class="st3" d="M385.24,841.77l-97.06,14.51c0,0-32.35-52.08-76.94-24.98c0,0-31.99,18.65-17.55,53.46
			c0,0,8.97,24.2,39.63,30.8"/>
		<path class="st3" d="M395.21,914.95L292.8,929.53c0,0-8.61,46.53-51.94,43.03c0,0-50.28,0.46-39.95-70.4"/>
	</g>
</g>
<g id="Layer_3" class="st0">
	<path class="st6" d="M512.65,425.28c0,0-206.89-5.63-235.63,151.98c0,0-16.09,82.18,60.92,153.11c0,0,70.11,82.18,174.71,78.81
		c0,0,91.95,4.5,172.41-77.68c0,0,72.41-67.55,60.92-160.99C745.98,570.51,711.5,420.78,512.65,425.28z"/>
	<polyline class="st7" points="296,676.64 200.02,741.64 155.19,830.58 	"/>
	<polyline class="st7" points="337.95,730.38 249.44,790.05 205.77,872.23 	"/>
	<polyline class="st7" points="383.92,773.16 309.21,827.2 272.43,894.75 	"/>
	<polyline class="st7" points="727.02,678.89 822.99,743.89 867.82,832.83 	"/>
	<polyline class="st7" points="685.06,732.63 773.57,792.3 817.25,874.48 	"/>
	<polyline class="st7" points="639.09,775.41 713.8,829.45 750.58,897 	"/>
	<path class="st7" d="M291.29,533.32l-144.14-44.99c0,0-42.53-12.38-58.62,32.65c0,0-8.05,39.4,33.33,52.91
		c0,0,83.43,19.93,153.78,20.66C275.64,594.55,276.81,558.05,291.29,533.32z"/>
	<path class="st7" d="M52.9,471.44c0,0,52.87-77.68,152.87-9.01c0,0,156.32-58.54,189.65-212.78c0,0-79.31,49.54-159.77,64.17
		c0,0-25.29-103.57,126.43-151.98c0,0-227.58-68.67-331.03,208.28C31.06,370.12,2.32,439.92,52.9,471.44z"/>
	<path class="st7" d="M731.64,533.32l144.14-44.99c0,0,42.53-12.38,58.62,32.65c0,0,8.05,39.4-33.33,52.91
		c0,0-83.43,19.93-153.78,20.66C747.29,594.55,746.11,558.05,731.64,533.32z"/>
	<path class="st7" d="M970.03,471.44c0,0-52.87-77.68-152.87-9.01c0,0-156.32-58.54-189.65-212.78c0,0,79.31,49.54,159.77,64.17
		c0,0,25.29-103.57-126.43-151.98c0,0,227.58-68.67,331.03,208.28C991.87,370.12,1020.6,439.92,970.03,471.44z"/>
	<ellipse class="st8" cx="417.83" cy="439.36" rx="46.55" ry="45.6"/>
	<ellipse class="st8" cx="602.88" cy="438.23" rx="46.55" ry="45.6"/>
</g>
<g id="Layer_4" class="st0">
	<g class="st1">
		<path class="st9" d="M946.5,540.5c0,0-98-46-122-125c0,0-46-163-219-161c0,0-171-22-370,269c0,0-62,100-76,177c0,0-158-187,0-343
			c0,0,2,113,98,219c0,0,143,215,310,214C567.5,790.5,797.5,797.5,946.5,540.5z"/>
		<path class="st9" d="M695.8,270.92c0,0-254.3-179.42-455.3-0.42c0,0,118.98,96.02,25.49,210.51"/>
		<path class="st9" d="M266.02,588.56c0,0,43.48,96.94-25.52,171.94c0,0,153.3,176.7,493.15-13.15"/>
		<g>
			<path d="M751.5,372.5c-2.6,2.4-5.03,4.87-7.37,7.41c-2.35,2.52-4.61,5.08-6.77,7.7c-4.38,5.19-8.42,10.57-12.22,16.04
				c-3.78,5.49-7.36,11.05-10.65,16.76c-1.64,2.86-3.25,5.71-4.76,8.63c-0.79,1.44-1.56,2.87-2.28,4.35
				c-0.72,1.47-1.48,2.92-2.18,4.4c-2.83,5.9-5.43,11.88-7.89,17.91c-2.35,6.08-4.68,12.16-6.65,18.39
				c-4.07,12.39-7.41,25.05-10.12,37.93l0.24-2.52l0.01,0.97l0.03,1.23l0.12,2.57c0.1,1.74,0.25,3.5,0.42,5.28
				c0.35,3.55,0.78,7.13,1.34,10.71c1.09,7.16,2.53,14.33,4.3,21.43c3.51,14.22,8.26,28.23,14.16,41.86
				c5.93,13.62,12.97,26.88,21.08,39.68c8.08,12.84,17.32,25.1,27.18,37.28c-13.33-8.25-25.58-18.38-36.64-29.81
				c-11.04-11.45-20.9-24.24-29.16-38.09c-8.29-13.83-15.1-28.65-20.16-44.12c-2.53-7.74-4.63-15.64-6.26-23.7
				c-0.79-4.03-1.5-8.1-2.04-12.22c-0.27-2.07-0.5-4.14-0.69-6.26c-0.1-1.06-0.18-2.13-0.25-3.21l-0.1-1.66l-0.03-0.87l-0.02-1.06
				l-0.02-1.04l0.26-1.49c2.51-14.18,6.32-28.21,11.51-41.76c2.55-6.79,5.59-13.42,8.86-19.9c3.35-6.46,7.03-12.75,11.09-18.79
				c8.14-12.05,17.73-23.14,28.73-32.53c5.47-4.71,11.33-8.96,17.47-12.66c1.53-0.93,3.11-1.79,4.67-2.66
				c1.59-0.83,3.19-1.64,4.8-2.4C744.75,374.79,748.06,373.4,751.5,372.5z"/>
		</g>
		<circle class="st10" cx="796.5" cy="530.5" r="28.5"/>
		<g>
			<path d="M633.5,316.5c-6.57,7.19-12.74,14.53-18.64,22.02c-2.97,3.72-5.81,7.53-8.64,11.32c-1.41,1.9-2.78,3.82-4.14,5.75
				c-1.37,1.92-2.73,3.84-4.05,5.78c-10.62,15.52-20.04,31.59-27.86,48.22c-7.82,16.62-14.15,33.76-18.41,51.34
				c-2.19,8.77-3.82,17.66-5.04,26.59c-1.16,8.94-1.84,17.94-2.07,26.98l-0.04-0.98l0.12,1.42l0.17,1.65
				c0.12,1.12,0.26,2.25,0.41,3.39c0.3,2.28,0.65,4.58,1.04,6.88c0.78,4.61,1.64,9.24,2.66,13.84c1.01,4.61,2.16,9.2,3.42,13.77
				c1.26,4.57,2.57,9.13,4.03,13.66c1.45,4.52,3.02,9.02,4.7,13.47c1.65,4.47,3.4,8.9,5.26,13.3c1.86,4.4,3.88,8.72,5.91,13.05
				c2.04,4.32,4.21,8.59,6.49,12.81c9.03,16.91,19.75,33.01,31.9,48.19c6.11,7.56,12.55,14.92,19.38,21.98
				c6.81,7.09,13.98,13.9,21.39,20.58c-8.84-4.62-17.34-9.94-25.56-15.72c-8.2-5.82-16.04-12.19-23.54-19
				c-14.96-13.66-28.29-29.27-39.76-46.22c-5.73-8.48-11-17.29-15.75-26.4c-2.37-4.55-4.64-9.16-6.79-13.83
				c-2.11-4.69-4.11-9.43-5.98-14.22c-3.78-9.58-6.99-19.39-9.66-29.4c-1.33-5-2.57-10.05-3.58-15.18
				c-0.51-2.56-0.97-5.15-1.39-7.76c-0.21-1.31-0.41-2.63-0.59-3.97l-0.26-2.04l-0.12-1.06l-0.12-1.22l-0.02-0.22l-0.01-0.76
				c-0.39-20.31,2.2-40.75,7.62-60.33c5.46-19.57,13.54-38.3,23.89-55.49c10.34-17.19,22.76-32.93,36.78-46.85
				c1.76-1.74,3.53-3.45,5.32-5.14c1.82-1.67,3.64-3.32,5.49-4.94c3.68-3.27,7.52-6.35,11.39-9.36c3.92-2.96,7.89-5.83,11.99-8.51
				C624.94,321.22,629.11,318.66,633.5,316.5z"/>
		</g>
		<g>
			<path d="M487.5,336.5c-5.5,7.7-10.46,15.57-15.15,23.55c-4.7,7.97-9.02,16.08-13.07,24.26c-8.06,16.39-14.8,33.2-20.14,50.31
				c-5.35,17.11-9.22,34.53-11.64,52.12c-2.4,17.59-3.25,35.36-2.68,53.14l-0.18-1.65l0.18,1.01l0.26,1.27
				c0.18,0.86,0.39,1.76,0.6,2.65c0.44,1.8,0.91,3.61,1.42,5.43c1,3.65,2.14,7.31,3.38,10.96c2.44,7.31,5.26,14.57,8.35,21.74
				c3.08,7.18,6.45,14.28,10.04,21.29c3.59,7.02,7.49,13.9,11.47,20.77c8.16,13.61,17.02,26.96,26.65,39.9
				c9.59,12.99,19.89,25.58,30.49,38.25c-14.01-8.76-27.07-19.02-39.36-30.25c-6.18-5.58-12.02-11.54-17.73-17.65
				c-5.64-6.17-11.08-12.56-16.24-19.2c-10.27-13.31-19.54-27.52-27.35-42.65c-3.91-7.56-7.47-15.34-10.59-23.37
				c-1.57-4.01-3.01-8.09-4.34-12.26c-0.66-2.08-1.28-4.2-1.87-6.35c-0.29-1.09-0.58-2.16-0.85-3.29l-0.4-1.71l-0.2-0.9l-0.22-1.09
				l-0.12-0.59l-0.06-1.06c-1.14-19.48-0.11-39.16,3.2-58.43c3.32-19.27,8.91-38.12,16.61-55.96c7.69-17.84,17.48-34.68,29.05-50.01
				c5.78-7.67,12.06-14.93,18.75-21.74c1.68-1.69,3.4-3.35,5.12-5c1.74-1.63,3.52-3.22,5.31-4.78
				C479.83,342.11,483.53,339.11,487.5,336.5z"/>
		</g>
		<path class="st11" d="M297.69,227.91c0,0,81.45,49.59,64.13,145.59"/>
		<path class="st11" d="M379.5,198.5c0,0,57,34,57,122"/>
		<path class="st11" d="M464.5,191.5c0,0,40,21,37,95"/>
		<path class="st11" d="M348.38,682.45c0,0,18.54,69.21-43.17,123.13"/>
		<path class="st11" d="M411.19,734.27c0,0,8.31,65.17-31.69,95.2"/>
		<path class="st11" d="M477.59,771.42c0,0,10.34,34.63-21.88,63.86"/>
	</g>
</g>
<g id="Layer_5" class="st0">
	<g class="st1">
		<path d="M287.21,936.72c3.6-12.62,6.34-25.19,10.82-37.1c4.38-11.64,10.53-22.61,16.17-34.45
			c-106.96-53.74-179.05-137.56-212.66-253.02c-20.61-70.78-20.32-142.09-0.87-214.13c2.36,22.39,3.88,43.94,7.05,65.25
			c4.75,31.9,13.46,62.62,32.85,89.22c19.38,26.58,45.85,39.98,78.49,42.7c34.37,2.86,64.4-7.97,93.59-25.12
			c44.06-25.9,88.17-51.98,133.89-74.71c59.1-29.39,122.3-44.93,188.84-43.9c70.73,1.1,136.04,21.78,197.22,56.31
			c15.88,8.96,30.95,19.34,46.53,28.84c4.64,2.83,6.15,5.99,5.46,11.64c-11.79,97.36-52.84,180.25-124.23,247.37
			c-66.8,62.79-146.59,97.98-237.98,106.38c-13.98,1.29-28.14,0.71-42.13,1.92c-6.17,0.54-12.99,2.1-18.06,5.42
			c-51.21,33.64-106.32,44.79-166.19,30.12C293.43,938.81,290.93,937.88,287.21,936.72z M378.2,850.33
			c26.61,8.86,52.07,13.65,77.95,15.63c86.41,6.59,165.97-14.06,237.27-63.27c82.88-57.21,132.51-136.46,151.57-235.14
			c1.25-6.49-0.21-10.63-6.28-13.8c-20.91-10.96-41.1-23.46-62.54-33.25c-62.18-28.4-127.31-38.57-195.31-28.83
			c-56.2,8.05-108.03,28.54-157.28,55.78c-35.6,19.69-69.96,41.62-105.64,61.16c-59.94,32.82-119.7,34.09-178.2-4.39
			c-0.26-0.17-0.96,0.33-1.85,0.66c0.37,1.68,0.6,3.42,1.13,5.08c32.74,102.02,97.41,176.3,193.82,223.12
			c5.37,2.61,8.27,1.36,12.28-2.41c28.26-26.6,61.04-46.02,97.09-60.11c2.05-0.8,4.26-1.18,7.08-1.94c0,10.22-0.43,19.51,0.14,28.74
			c0.44,7.23-1.93,11.01-8.84,14.02C418.58,820.97,398.29,833.54,378.2,850.33z M406.58,896.79c-18.54-5.53-35.82-10.74-53.16-15.74
			c-1.37-0.39-3.99,0.14-4.61,1.13c-5.27,8.33-10.2,16.87-15.69,26.1C355.21,911.24,386.79,906.16,406.58,896.79z"/>
		<path d="M167.42,534.05c-7.04-8.93-15.12-17.23-20.9-26.91c-13.27-22.22-19.01-47.1-21.59-72.55
			c-4.7-46.26-0.68-91.59,19.06-134.32c15.56-33.69,39.96-61.07,66.62-86.21c75.52-71.23,165.59-108.32,269.33-110.15
			c30.93-0.54,60.9,7.84,90.4,22.86c-12.05,18.09-23.07,35.84-35.32,52.69c-12.34,16.98-28.87,29.21-49.15,36.76
			c5.45,9.18,10.68,17.51,15.43,26.09c19.8,35.75,27,74.53,26.72,114.91c-0.02,2.88-3.86,7.08-6.9,8.38
			c-26.81,11.45-54.7,11.33-81.77,2.81c-31.32-9.85-61.64-22.8-92.7-33.51c-17.46-6.02-35.27-11.72-53.4-14.94
			c-35.09-6.24-63.03,9.67-85.23,34.53c-45.66,51.14-61.56,109.64-38.37,176.2c0.17,0.48-0.1,1.1-0.16,1.66
			C168.79,532.92,168.11,533.48,167.42,534.05z M515.5,144.27c-16.26-1.52-30.41-4.58-44.36-3.85
			c-88.39,4.63-165.87,36.33-231.23,96.29c-24.12,22.13-45.82,46.54-61.12,75.82c-4.52,8.64-7.34,18.17-10.94,27.29
			c0.76,0.35,1.53,0.71,2.29,1.06c2.41-2.57,4.81-5.13,7.22-7.7c19.05-20.39,40.49-37.27,67.57-45.78
			c30.51-9.59,60.63-5.52,89.9,4.57c30.22,10.42,59.5,23.62,89.84,33.6c18.24,6,37.7,8.44,56.71,11.93c7.08,1.3,9.7-1.9,8.78-9.87
			c-3.93-33.8-16.21-64.11-35.89-91.67c-9.28-13-18.26-26.2-27.9-40.07c16.1-5.01,30.84-9.83,45.73-14.16
			C491.21,176.14,502.84,162.13,515.5,144.27z"/>
		<path d="M687.73,348.79c-40.17,0.08-72.52-32.22-72.42-72.32c0.09-39.52,32.46-71.61,72.26-71.64
			c39.83-0.03,72.11,31.87,72.34,71.49C760.16,316.46,728.04,348.71,687.73,348.79z M641.54,261.86
			c0.09,17.78,15.12,32.63,32.79,32.39c17.73-0.24,32.44-15.34,32.21-33.08c-0.22-17.3-14.99-31.75-32.44-31.75
			C656.05,229.42,641.45,243.97,641.54,261.86z"/>
		<path d="M921.16,567.27c20.56,73.75-8.97,179.8-106.24,229.37c27.8-32.4,51.25-67.61,69.36-106.26
			C902.48,651.55,914.41,610.8,921.16,567.27z"/>
		<path d="M668.69,414.54c73.25-22.48,171.29,5.34,221.34,82.2C822.58,453.33,750.23,423.07,668.69,414.54z"/>
		<path d="M667,775.02c-14.01,7.6-25.89,14.3-38.08,20.38c-2.02,1.01-5.82-0.01-8.1-1.32c-59.97-34.42-94.79-86.01-104.74-154.34
			c-4.34-29.78-1.11-58.99,7.37-87.77c1.59-5.38,4.14-8.68,9.9-10.01c11.82-2.74,23.5-6.09,37.78-9.86
			c-23.75,48.52-27.08,95.94-8.27,143.71C581.71,723.7,616.62,756.04,667,775.02z"/>
		<path d="M659.51,558.52c0.02-17.5,13.94-31.5,31.31-31.49c17.13,0.01,31.36,14.32,31.41,31.58c0.05,17.26-14.23,31.45-31.5,31.3
			C672.95,589.75,659.49,576.21,659.51,558.52z"/>
	</g>
</g>
<g id="Layer_6" class="st0">
	<g class="st1">
		<path d="M714.38,982c-125.31,0-250.62,0-375.93,0c-1.89-0.18-3.78-0.51-5.66-0.52c-29.72-0.11-59.45-0.16-89.17-0.32
			c-2.16-0.01-4.5-0.37-6.43-1.26c-5.93-2.75-11.81-5.64-17.52-8.83c-25.87-14.42-43.79-35.32-49.36-64.86
			c-2.74-14.54-3.24-29.52-4.37-44.33c-2.81-36.65-5.43-73.31-8.07-109.98c-2.79-38.9-5.6-77.79-8.24-116.7
			c-2.55-37.63-4.98-75.27-7.29-112.92c-0.71-11.48-1.63-23.04-1-34.48c0.45-8.14,1.26-16.06-0.09-24.24
			c-4.58-27.83,3.94-51.04,25.54-69.32c12.76-10.79,27.66-17.62,43.16-23.34c3.49-1.29,6.94-2.69,10.95-4.24
			c-2.44-2.18-4.35-3.86-6.24-5.56c-9.85-8.9-20.74-15.01-34.57-15.62c-4.54-0.2-9.46-2.9-13.27-5.72c-5.13-3.8-5.9-10.1-3.39-16.09
			c3.16-7.56,7.88-11.2,14.61-10.93c4.46,0.18,8.96,0.43,13.36,1.13c16.44,2.63,30.18,10.82,42.81,21.23
			c2.27,1.87,4.69,3.56,7.11,5.37c0.38-0.72,0.52-0.87,0.52-1c-0.02-0.63-0.05-1.26-0.13-1.88c-2.37-18.89-3.63-37.63,7.19-54.81
			c0.92-1.46,1.58-3.22,1.83-4.91c0.35-2.32,0.79-4.89,0.15-7.04c-11.17-37.81,8.64-79.91,44.38-97.33
			c9.24-4.5,13.92-10.06,16.38-20.51c5.66-24.05,20.53-41.81,43.02-52.71c4.93-2.39,9.24-4.97,12.1-10.23
			c3.84-7.08,8.16-14.17,13.55-20.1c18.03-19.85,39.99-26.06,65.5-16.44c6.51,2.46,12.16,0.53,18.1-1.35
			c28.66-9.03,59.37,5.74,69.89,33.89c2.07,5.55,5.34,9.27,10.73,11.39c2.23,0.87,4.43,1.82,6.57,2.89
			c20.69,10.32,36.17,25.51,43.98,47.66c1.82,5.15,5.09,8.79,9.5,11.58c21.06,13.35,34.97,32.33,43.82,55.35
			c0.36,0.93,0.95,1.77,1.82,3.37c1.93-3.04,3.63-5.33,4.92-7.83c6.97-13.47,13.81-27,20.74-40.49
			c15.05-29.3,30.89-58.13,51.84-83.77c12.86-15.74,27.35-29.59,46.33-37.83c26.68-11.59,51.24-8.06,72.98,11.34
			c17.71,15.81,27.75,36.38,34.23,58.82c1.44,5,1.94,10.26,2.88,15.41c0,8.95,0,17.91,0,26.86c-0.27,1.7-0.65,3.39-0.8,5.1
			c-2.26,26.09-3.94,52.25-6.85,78.27c-6.4,57.21-17.95,113.47-33.12,168.99c-3.98,14.59-7.97,29.18-11.52,42.16
			c6.25,6,11.67,11.01,16.81,16.3c1.04,1.07,1.53,3.19,1.43,4.77c-1.75,26.62-3.61,53.24-5.49,79.86
			c-4.02,56.9-7.95,113.8-12.13,170.68c-4.07,55.28-8.29,110.56-12.71,165.82c-1.38,17.3-4.72,33.99-15.99,48.34
			c-19.25,24.49-42.65,40.55-75.08,40.13C723.91,981.11,719.14,981.71,714.38,982z M814.34,497.84c-2.86,0.98-4.83,1.51-6.69,2.32
			c-11.57,5.01-23.16,9.95-34.64,15.16c-18.24,8.28-37.17,9.97-56.67,6.19c-14.51-2.82-27.06-10.25-39.78-17.27
			c-16.23-8.96-32.46-8.72-48.8,0c-9,4.8-18.02,9.69-27.45,13.51c-21.55,8.73-43.16,9.31-64.44-1.39
			c-8.12-4.09-16.44-7.79-24.53-11.95c-16.71-8.61-33.25-8.96-49.83,0.33c-4.59,2.57-9.31,4.94-14.04,7.25
			c-28.24,13.8-56.51,17.23-85.18,0.85c-7.87-4.5-16.34-7.98-24.67-11.62c-12.26-5.36-24.54-4.98-36.61,0.79
			c-5.9,2.82-11.79,5.68-17.58,8.72c-19.6,10.33-40.47,11.93-61.98,9.23c-12.75-1.6-24.14-6.94-35.34-12.84
			c-3.85-2.03-7.8-3.85-11.86-5.84c-0.22,1.03-0.36,1.35-0.34,1.65c2.51,37.48,4.97,74.96,7.57,112.43
			c3.32,47.83,6.78,95.66,10.13,143.49c3.02,43.05,6.1,86.09,8.9,129.15c0.68,10.47,1.99,20.55,7.55,29.76
			c11.15,18.49,25.23,30.74,48.86,30.72c157.58-0.15,315.16,0.27,472.74,0.73c8.76,0.03,16.78-1.67,24.45-5.4
			c17.55-8.55,28.88-22.17,31.24-41.85c2.41-20.14,4.1-40.37,5.7-60.6c2.24-28.2,4.13-56.43,6.12-84.65
			c2.79-39.38,5.59-78.76,8.28-118.14c2.2-32.21,4.26-64.43,6.32-96.65C812.69,527.57,813.45,513.22,814.34,497.84z M851.17,158.03
			c0-6.23,0.14-12.46-0.03-18.69c-0.49-18.96-6-36.25-18.47-50.72c-11.8-13.69-28.38-17.65-44.64-9.85
			c-8.49,4.07-16.47,9.84-23.53,16.13c-16.06,14.29-27.4,32.36-37.71,51.02c-32.45,58.7-61.12,119.3-90.06,179.77
			c-23.62,49.35-41.7,100.8-58.01,152.92c-0.99,3.17-0.72,6.73-1.03,10.12c3.5-0.64,7.3-0.62,10.43-2.06
			c8.41-3.85,16.47-8.43,24.77-12.52c19.33-9.54,39.78-13,60.44-6.68c13.28,4.06,25.92,10.68,38.24,17.29
			c13.3,7.14,26.59,7.38,40.21,2.56c8.55-3.03,16.55-7.56,25.07-10.71c11.07-4.09,16.79-11.97,20.22-22.99
			c16.66-53.57,30.09-107.88,39.38-163.23C843.8,246.54,848.94,202.47,851.17,158.03z M394.65,357.85c0.4-0.27,0.8-0.54,1.19-0.81
			c-0.17-15.22,4.7-29.02,12.46-41.72c6.32-10.34,13.47-20.18,20.27-30.23c5.27-7.79,5.48-8.09-2.73-12.92
			c-10.9-6.41-16.68-15.86-20.13-27.86c-6.31-21.94,9.27-43.34,27.28-47.09c29.2-6.08,58.15-13.39,87.27-19.86
			c7.12-1.58,14.67-3.41,21.74-2.61c29.09,3.3,45.35,41.25,28.5,65.51c-0.81,1.16-1.84,2.23-2.96,3.09
			c-2.36,1.82-2.28,3.72-0.34,5.64c1.35,1.34,2.82,2.64,4.43,3.64c10.69,6.69,21.38,13.38,32.17,19.91
			c5.17,3.13,7.44,2.23,10.05-3.37c3.94-8.45,4.99-17.44,4.98-26.62c0-13.9-2.44-27.01-11.89-37.99
			c-8.39-9.74-17.98-17.97-30.47-21.57c-7.06-2.04-9.46-5.63-10.04-12.89c-2.1-26.25-15.95-40.31-42.02-43.13
			c-7.19-0.78-14.55-0.12-22.15-0.12c0.33-2.83,0.62-4.41,0.67-5.99c0.19-6.37,0.98-12.81,0.3-19.1
			c-1.45-13.53-11.38-21.43-24.66-19.29c-4.91,0.79-9.74,3.7-14,6.55c-4.2,2.8-7.63,6.75-11.43,10.22
			c-4.09-3.6-8.05-7.07-11.99-10.57c-8.96-7.96-19.22-7.84-29.71-4.28c-10.05,3.4-13.81,11.67-15.06,21.45
			c-0.3,2.37-0.37,4.78-0.41,7.17c-0.2,12.51-0.67,13.01-12.89,13.34c-0.8,0.02-1.6,0.03-2.4,0.08
			c-23.75,1.47-40.39,20.94-37.63,44.55c0.93,8,3.02,15.86,4.68,24.32c-8.57,0.99-16.99,1.7-25.31,2.97
			c-34.12,5.19-51.65,38.53-36.77,69.72c2.67,5.59,5.42,11.13,8.42,17.31c-16.63,10.01-25.35,23.7-20.52,44
			c5.66-2.63,10.98-5.14,16.33-7.58c24.22-11.05,47.67-9.75,69.4,5.82c10.2,7.31,19.17,16.34,28.7,24.59
			C390.21,354.05,392.43,355.95,394.65,357.85z M400.57,464.07c-0.72-7.49-0.55-15.82-2.44-23.65
			c-8.01-33.23-26.35-60.44-51.74-82.68c-13.69-11.99-29.96-13.3-45.9-4.04c-9.06,5.26-17.81,11.38-25.69,18.27
			c-15.28,13.35-32.27,23.12-51.51,29.61c-11.12,3.75-21.92,8.74-32.36,14.16c-10.62,5.52-16.31,15.05-17.32,27.06
			c-0.36,4.29,0.01,8.63-0.25,12.94c-0.24,4.04,1.48,6.53,4.98,8.37c11.87,6.23,23.56,12.8,35.49,18.91
			c15.83,8.12,31.93,7.86,47.98,0.56c7.99-3.63,15.8-7.65,23.8-11.26c23.12-10.44,46.32-10.79,69.51-0.21
			c11.9,5.43,23.71,11.06,35.65,16.41c5.01,2.24,7.27,1.14,8.04-4.22C399.76,477.84,399.98,471.27,400.57,464.07z M464.6,271.18
			c4.55,17.08-4.78,28.78-13.48,40.78c-4.59,6.33-9.1,12.75-13.22,19.39c-5.97,9.62-9.37,20.43-7.81,31.56
			c2.7,19.25,6.73,38.32,10.4,57.42c0.24,1.26,2.2,3.17,3.31,3.14c14.01-0.39,28.35,0.61,41.89-2.22
			c10.55-2.2,20.52-8.55,29.98-14.3c19.5-11.86,38.22-25.05,60.4-31.82c1.52-0.47,3.13-2.22,3.77-3.77
			c6.42-15.48,12.47-31.11,19.01-46.53c2.22-5.23,1.25-9-2.57-12.87c-10.08-10.21-21.53-18.61-34.03-25.49
			c-10.68-5.88-20.58-12.21-25.2-24.35c-1.41-3.71-4.67-4.99-8.68-4.16C507.45,262.31,486.52,266.63,464.6,271.18z M562.71,417.37
			c-0.31-0.21-0.62-0.41-0.93-0.62c-8.56,5.54-17.1,11.1-25.68,16.6c-15.13,9.7-30.87,18.21-48.75,21.45
			c-10.65,1.93-21.53,2.6-32.27,4.02c-5.37,0.71-6.35,2.32-5.36,7.3c0.94,4.71,4.33,3.97,7.48,3.27c4.66-1.04,9.2-2.74,13.9-3.48
			c20.71-3.27,40.3,0.21,58.85,10.04c11.8,6.25,11.87,6.13,15.9-6.33C551.47,452.2,557.09,434.78,562.71,417.37z M446.28,240.54
			c0.84-0.06,2.31,0,3.7-0.3c29.92-6.5,59.81-13.11,89.74-19.53c5.29-1.14,3.3-4.68,2.73-7.41c-0.62-2.98-1.21-6.3-6.18-5.03
			c-9.42,2.41-19,4.16-28.5,6.28c-21.17,4.72-42.32,9.5-63.48,14.24c-4.08,0.91-6.66,2.81-5.87,7.6
			C439.17,240.94,442.44,240.62,446.28,240.54z"/>
		<path d="M330.37,886.24c-30.82,0-61.64,0.01-92.46,0c-10.44,0-18.82-14.01-13.44-23.02c3.62-6.07,8.04-10.33,16.64-10.24
			c54.13,0.56,108.26,0.37,162.39,0.62c7.47,0.03,14.99,0.78,22.4,1.83c7.84,1.11,11.85,6.98,11.17,15.12
			c-0.75,9-5.45,14.35-13.31,14.51c-31.13,0.61-62.26,1.08-93.38,1.6C330.38,886.52,330.38,886.38,330.37,886.24z"/>
		<path d="M312.15,819.9c-25.09,0-50.18,0-75.28,0c-7.03,0-13.74-7.59-14.04-15.85c-0.3-8.38,5.57-15.59,13.3-15.83
			c15.81-0.5,31.63-1.02,47.45-1.08c30.84-0.12,61.69-0.01,92.53,0.22c5.87,0.04,11.81,0.74,17.59,1.81
			c6.97,1.29,10.68,7.18,10.54,15.5c-0.12,6.83-4.51,12.8-11.14,13.58c-8.23,0.97-16.56,1.35-24.85,1.44
			c-18.7,0.2-37.4,0.06-56.1,0.06C312.15,819.8,312.15,819.85,312.15,819.9z"/>
		<path d="M295.77,753.6c-19.66,0-39.32,0.01-58.98,0c-6.79,0-13.39-7.36-13.93-15.5c-0.54-8.12,4.98-15.77,12.35-16.16
			c12.92-0.69,25.86-1.18,38.8-1.23c24.29-0.09,48.58,0.15,72.86,0.35c3.66,0.03,7.33,0.48,10.96,0.99
			c8.84,1.25,13.51,6.84,13.34,15.74c-0.15,8.14-5.86,14.31-14.54,14.77c-11.8,0.63-23.63,0.77-35.46,0.97
			c-8.47,0.14-16.94,0.03-25.41,0.03C295.77,753.57,295.77,753.58,295.77,753.6z"/>
		<path d="M503.48,886.01c-5.74,0-11.49,0.21-17.22-0.05c-8.45-0.39-14.47-6.73-14.78-15.14c-0.33-8.94,5.01-16.07,13.63-16.45
			c12.54-0.54,25.14-0.57,37.68,0.05c8.93,0.44,13.48,6.89,13.24,16.64c-0.2,8.12-5.8,14.12-13.9,14.9
			c-0.48,0.05-0.95,0.08-1.43,0.08c-5.74,0.01-11.48,0-17.22,0C503.48,886.03,503.48,886.02,503.48,886.01z"/>
		<path d="M711.92,433.27c-7.19-0.54-14.52-1-21.84-1.66c-12.14-1.09-18.86,2.66-24.49,13.39c-2.06,3.92-4.35,7.86-7.24,11.18
			c-4.9,5.64-9.85,6.93-14.73,4.76c-7.94-3.53-12.96-10.26-12.07-17.24c0.47-3.71,1.64-7.55,3.41-10.85
			c10.7-19.94,28.23-30.01,49.88-34.18c8.96-1.73,17.45,0.28,26.02,2.1c19.56,4.15,27.76,0.25,36.74-17.52
			c5.09-10.07,13.23-13.84,22.18-10.26c7.06,2.83,11.39,9.64,9.17,16.86c-1.97,6.43-4.66,13.1-8.73,18.34
			c-12.66,16.3-28.79,26.53-50.49,25.09C717.18,433.12,714.62,433.27,711.92,433.27z"/>
		<path d="M735.51,284.08c8.6,0.63,17.2,1.16,25.79,1.92c9.76,0.86,17.08-2.68,21.93-11.32c2.34-4.17,4.66-8.4,7.52-12.21
			c4.63-6.15,11.03-8.07,17.29-5.79c6.21,2.26,9.99,8.08,10.05,15.38c0.06,7.18-2.8,13.31-6.66,19.13
			c-10.7,16.13-41.8,34.62-68.81,26.34c-3.34-1.02-6.82-1.67-10.29-2.21c-11.5-1.81-19.86,2.49-26.54,13.5
			c-1.82,3-3.39,6.17-5.4,9.03c-5.4,7.67-13.9,10.11-21.33,6.36c-7.04-3.55-9.97-11.94-7.26-20.72
			c6.17-19.96,29.33-37.56,51.25-38.81c4.14-0.24,8.3-0.03,12.45-0.03C735.49,284.46,735.5,284.27,735.51,284.08z"/>
		<path d="M763.07,172.69c8.19,0.97,16.3,1.75,24.34,2.95c4.33,0.65,8.11-0.02,10.84-3.4c3.35-4.16,6.7-8.42,9.31-13.05
			c3.56-6.32,12.38-10.23,19.8-8.04c7.68,2.28,11.57,8.15,10.62,16.31c-1.04,8.94-5.21,16.41-11.53,22.6
			c-15.57,15.23-34.26,20.27-55.49,16.42c-18.81-3.41-19.85-2.98-30.15,13.55c-6.59,10.58-14.14,13.04-23.57,7.69
			c-6.75-3.83-9.67-10.34-6.83-17.97c7.12-19.14,21.34-30.53,40.86-35.48C755.1,173.3,759.15,173.19,763.07,172.69z"/>
	</g>
</g>
<g id="Layer_7" class="st0">
	<g class="st1">
		<g>
			<path d="M139,277l765.46,0.55L861,935H184L139,277 M139,246c-8.59,0-16.79,3.56-22.65,9.83c-5.87,6.28-8.87,14.71-8.28,23.28
				l45,658C154.18,953.38,167.7,966,184,966h677c16.33,0,29.86-12.66,30.93-28.96l43.46-657.45c0.57-8.55-2.44-16.96-8.29-23.22
				c-5.86-6.26-14.04-9.82-22.62-9.82L139.02,246C139.01,246,139.01,246,139,246L139,246z"/>
		</g>
		<path class="st12" d="M275,332.5C275,196.36,385.36,86,521.5,86S768,196.36,768,332.5"/>
		<circle class="st13" cx="767.5" cy="332.5" r="38.5"/>
		<circle class="st13" cx="274.5" cy="332.5" r="38.5"/>
		<polygon class="st14" points="522.36,436.97 576.02,545.69 696,563.12 609.18,647.75 629.68,767.25 522.36,710.83 415.04,767.25 
			435.54,647.75 348.72,563.12 468.7,545.69 		"/>
		<circle class="st14" cx="522" cy="616" r="258.5"/>
	</g>
</g>
<g id="Layer_8" class="st0">
	<g class="st1">
		<path d="M643.88,443.19l24.8,313.08h-378.8l22.32-313.08H643.88 M643.88,412.19H312.2c-16.27,0-29.77,12.57-30.92,28.8
			l-22.32,313.08c-0.61,8.58,2.37,17.03,8.24,23.33s14.08,9.87,22.69,9.87h378.8c8.65,0,16.9-3.61,22.77-9.96
			c5.87-6.35,8.82-14.86,8.13-23.48l-24.8-313.08C673.51,424.62,660.06,412.19,643.88,412.19L643.88,412.19z"/>
	</g>
	<path class="st15" d="M361.47,469.34c0-64.83,52.56-117.39,117.39-117.39s117.39,52.56,117.39,117.39"/>
	<polyline class="st15" points="590.8,358.07 738.2,358.07 763,671.15 714.69,671.06 	"/>
	<path class="st15" d="M489.09,302.3c21.32-21.88,51.12-35.48,84.09-35.48c64.83,0,117.39,52.56,117.39,117.39"/>
	<line class="st15" x1="289.5" y1="527.29" x2="660.63" y2="527.29"/>
	<line class="st15" x1="687.85" y1="440.64" x2="753.8" y2="440.64"/>
</g>
<g id="Layer_9">
	<g>
		<g>
			<path d="M310.8,393.59c0-2.5-0.06-4.41,0.01-6.33c0.54-14.77-0.39-29.78,1.92-44.28c8.16-51.18,48.44-91.01,99.42-99.83
				c73.14-12.65,141.19,43.94,142.07,118.18c0.11,9.22,0.04,18.44,0.05,27.65c0,1.36,0,2.71,0,4.6c2.09,0,3.73,0,5.36,0
				c32.68,0,65.37,0,98.05,0c12.01,0,17.91,5.7,18.81,17.61c3.5,46.37,7.11,92.72,10.66,139.09c2.64,34.53,5.24,69.06,7.89,103.59
				c3.48,45.25,6.99,90.49,10.49,135.74c0.36,4.59,0.89,9.18,1.06,13.78c0.38,9.92-5.58,16.15-15.48,16.3
				c-4.33,0.07-8.66,0.02-12.99,0.02c-166.63,0-333.26,0-499.89,0c-1.54,0-3.07,0.03-4.61-0.01c-9.27-0.24-15.41-6.13-15.01-15.43
				c0.55-12.97,1.74-25.91,2.73-38.86c2.41-31.61,4.86-63.21,7.31-94.81c2.67-34.53,5.38-69.05,8.03-103.58
				c2.36-30.63,4.67-61.26,7-91.89c1.69-22.14,3.32-44.28,5.12-66.4c0.75-9.23,7.62-15.12,17.31-15.13
				c33.1-0.03,66.2-0.01,99.31-0.01C307.07,393.59,308.7,393.59,310.8,393.59z M217.92,424.24
				c-7.59,101.3-15.18,202.44-22.77,303.79c158.56,0,316.54,0,474.87,0c-7.61-101.53-15.2-202.67-22.78-303.72
				c-31.33,0-61.99,0-92.55,0c-0.21,0.51-0.4,0.76-0.4,1.01c-0.04,20.67-0.09,41.34,0,62.01c0,1.09,1,2.52,1.96,3.21
				c9.31,6.64,13.57,15.66,13.03,27c-0.66,13.67-11.27,25.28-25.36,27.82c-13.48,2.43-27.44-5.34-32.94-18.33
				c-5.34-12.61-1.32-27.74,9.75-35.55c2.36-1.66,3.21-3.3,3.2-6.1c-0.11-18.99-0.06-37.99-0.06-56.98c0-1.34,0-2.68,0-4.1
				c-61.16,0-121.7,0-182.48,0c-0.07,1.6-0.18,2.97-0.18,4.33c-0.01,18.85,0.07,37.71-0.08,56.56c-0.02,3.01,0.94,4.69,3.38,6.42
				c10.22,7.23,14.38,21.09,10.3,33.27c-4.27,12.75-15.83,20.94-29.34,20.81c-13.01-0.13-24.72-8.92-28.52-21.4
				c-3.76-12.35,0.68-26.02,11.07-33.05c2.33-1.57,2.93-3.2,2.92-5.79c-0.09-18.99-0.04-37.99-0.06-56.98
				c0-1.35-0.12-2.71-0.19-4.23C279.68,424.24,249.02,424.24,217.92,424.24z M523.44,393.23c0.16-1.02,0.39-1.82,0.39-2.62
				c0-10.33,0.26-20.67-0.12-30.99c-1.73-47.22-38.67-84.9-86.98-87.6c-46.4-2.59-86.19,30.63-93.63,74.32
				c-2.27,13.35-1.34,27.25-1.85,40.89c-0.07,1.91-0.01,3.82-0.01,6C402.28,393.23,462.79,393.23,523.44,393.23z M190.55,789.09
				c162.01,0,323.49,0,485.57,0c-1.02-10.21-2.01-20.1-3.02-30.22c-2.38,0-4.18,0-5.98,0c-155.83,0-311.66,0-467.49,0
				c-1.26,0-2.57-0.2-3.75,0.09c-0.88,0.22-2.21,1.02-2.29,1.69C192.48,770.02,191.55,779.41,190.55,789.09z"/>
			<path d="M676.19,364.57c-9.65-0.55-18.49-1.17-27.34-1.49c-2.66-0.1-3.3-1.08-3.27-3.51c0.1-8.77,0.04-17.53,0.04-26.78
				c-21.45,0-42.47,0-63.06,0c-3.07-10.41-5.96-20.26-9-30.56c23.74,0,47.67,0,71.61,0c1.65-30.98,1.54-60.8-18.93-86.6
				c-37.14-46.84-107.34-46.73-143.61,0.71c-2.09,2.73-3.62,3.37-7.13,2.3c-8.76-2.66-17.77-4.49-27.14-6.76
				c0.56-1.06,1.17-2.39,1.93-3.63c26.12-42.73,74.77-64.73,124.66-56.38c47.85,8.01,87.45,45.32,97.96,93.04
				c2.11,9.6,2.48,19.62,3.12,29.48c0.48,7.37,0.09,14.8,0.1,22.2c0,5.76,0.01,5.76,5.96,5.76c32.54,0,65.08,0,97.63,0
				c11.78,0,17.59,5.64,18.48,17.39c3.72,48.87,7.54,97.73,11.3,146.59c2.65,34.53,5.23,69.06,7.89,103.58
				c3.49,45.38,7.02,90.77,10.54,136.15c0.14,1.81,0.29,3.62,0.38,5.43c0.51,10.5-5.24,16.73-15.72,16.76c-25,0.06-50,0.02-75,0.02
				c-0.96,0-1.93-0.09-3.44-0.17c-1.03-9.85-2.06-19.63-3.15-30.03c22.29,0,44.25,0,66.98,0c-1.06-10.53-2.05-20.41-3.07-30.64
				c-22.45,0-44.47,0-66.94,0c-1.03-10.14-2.03-19.93-3.08-30.31c22.36,0,44.33,0,66.95,0c-7.63-101.73-15.21-202.87-22.8-304.21
				c-31.06,0-61.7,0-92.84,0C676.19,343.86,676.19,354.54,676.19,364.57z"/>
		</g>
		<g>
			<g id="_x37__11_">
				<g>
					<path d="M633.94,999.48l20.57-44.47c104.39,29.97,217.91-19.54,264.97-121.26c36.3-78.45,23.33-166.96-25.89-230.97
						l-25.14,23.76c39.93,53.93,49.94,127.48,19.75,192.73c-39.04,84.4-132.18,126.42-219.06,104.11l24.72-53.43
						c-2.46-7-3.22-12.98-14.56-9.81l-86.34,30.9c-6.93,2.66-10.55,10.5-8.1,17.5l32.16,86.2
						C619.49,1001.74,627.01,1002.14,633.94,999.48z"/>
				</g>
			</g>
		</g>
		<g>
			<g id="_x37__1_">
				<g>
					<path d="M402.82,49.6l-22.66,43.44c-102.85-34.89-218.59,9.18-270.42,108.56c-39.98,76.64-31.22,165.66,14.91,231.94
						l26.24-22.54c-37.33-55.76-43.84-129.71-10.59-193.45c43-82.45,138.02-120,223.75-93.6l-27.22,52.2
						c2.12,7.11,2.61,13.12,14.08,10.49l87.71-26.77c7.05-2.33,11.04-9.99,8.92-17.1l-28.04-87.63
						C417.36,48.03,409.87,47.27,402.82,49.6z"/>
				</g>
			</g>
		</g>
	</g>
</g>
</svg>
